<?xml version="1.0" encoding="UTF-8" standalone="no"?>
<!DOCTYPE svg PUBLIC "-//W3C//DTD SVG 1.1//EN"
 "http://www.w3.org/Graphics/SVG/1.1/DTD/svg11.dtd">
<!-- Generated by graphviz version 2.43.0 (0)
 -->
<!-- Title: G Pages: 1 -->
<svg width="1652pt" height="447pt"
 viewBox="0.00 0.00 1651.95 447.43" xmlns="http://www.w3.org/2000/svg" xmlns:xlink="http://www.w3.org/1999/xlink">
<g id="graph0" class="graph" transform="scale(1 1) rotate(0) translate(4 443.43)">
<title>G</title><style>.edge>path:hover{stroke-width:8}</style>
<polygon fill="white" stroke="transparent" points="-4,4 -4,-443.43 1647.95,-443.43 1647.95,4 -4,4"/>
<!-- collections_py -->
<g id="node1" class="node">
<title>collections_py</title><style>.edge>path:hover{stroke-width:8}</style>
<ellipse fill="#9f5656" stroke="black" cx="49.45" cy="-18" rx="49.4" ry="18"/>
<text text-anchor="middle" x="49.45" y="-15.5" font-family="Helvetica,sans-Serif" font-size="10.00" fill="#ffffff">collections.py</text>
</g>
<!-- nltk -->
<g id="node2" class="node">
<title>nltk</title><style>.edge>path:hover{stroke-width:8}</style>
<polygon fill="blue" stroke="black" points="877.45,-145 823.45,-145 823.45,-109 877.45,-109 877.45,-145"/>
<text text-anchor="middle" x="850.45" y="-124.5" font-family="Helvetica,sans-Serif" font-size="10.00" fill="white">nltk</text>
</g>
<!-- nltk&#45;&gt;collections_py -->
<g id="edge1" class="edge">
<title>nltk&#45;&gt;collections_py</title><style>.edge>path:hover{stroke-width:8}</style>
<path fill="none" stroke="black" d="M823.39,-125.27C686.49,-121.46 75.49,-102.82 49.45,-73"/>
</g>
<!-- nltk_ccg -->
<g id="node3" class="node">
<title>nltk_ccg</title><style>.edge>path:hover{stroke-width:8}</style>
<polygon fill="blue" stroke="black" points="1643.95,-220.21 1588.95,-220.21 1588.95,-184.21 1643.95,-184.21 1643.95,-220.21"/>
<text text-anchor="middle" x="1616.45" y="-199.71" font-family="Helvetica,sans-Serif" font-size="10.00" fill="white">nltk.ccg</text>
</g>
<!-- nltk_ccg&#45;&gt;nltk -->
<g id="edge2" class="edge">
<title>nltk_ccg&#45;&gt;nltk</title><style>.edge>path:hover{stroke-width:8}</style>
<path fill="none" stroke="black" d="M1588.71,-184.46C1585.66,-183.1 1582.54,-181.91 1579.45,-181 1447.72,-142.22 1017.73,-131.13 887.9,-128.63"/>
<polygon fill="blue" stroke="black" points="887.74,-125.12 877.67,-128.44 887.61,-132.12 887.74,-125.12"/>
</g>
<!-- nltk_chunk -->
<g id="node4" class="node">
<title>nltk_chunk</title><style>.edge>path:hover{stroke-width:8}</style>
<polygon fill="blue" stroke="black" points="658.45,-439.43 590.45,-439.43 590.45,-403.43 658.45,-403.43 658.45,-439.43"/>
<text text-anchor="middle" x="624.45" y="-418.93" font-family="Helvetica,sans-Serif" font-size="10.00" fill="white">nltk.chunk</text>
</g>
<!-- nltk_chunk&#45;&gt;nltk -->
<g id="edge3" class="edge">
<title>nltk_chunk&#45;&gt;nltk</title><style>.edge>path:hover{stroke-width:8}</style>
<path fill="none" stroke="black" d="M658.69,-406.83C661.65,-405.67 664.6,-404.52 667.45,-403.43 729.91,-379.34 779.5,-410.79 808.45,-350.43"/>
<path fill="none" stroke="black" d="M808.45,-348.43C825.98,-311.87 818.45,-286.69 788.45,-259.43 686.77,-167.01 453,-336.97 484.45,-203.21"/>
</g>
<!-- nltk_data -->
<g id="node8" class="node">
<title>nltk_data</title><style>.edge>path:hover{stroke-width:8}</style>
<polygon fill="blue" stroke="black" points="654.45,-367.43 594.45,-367.43 594.45,-331.43 654.45,-331.43 654.45,-367.43"/>
<text text-anchor="middle" x="624.45" y="-346.93" font-family="Helvetica,sans-Serif" font-size="10.00" fill="white">nltk.data</text>
</g>
<!-- nltk_chunk&#45;&gt;nltk_data -->
<g id="edge4" class="edge">
<title>nltk_chunk&#45;&gt;nltk_data</title><style>.edge>path:hover{stroke-width:8}</style>
<path fill="none" stroke="black" d="M624.45,-403.12C624.45,-395.41 624.45,-386.14 624.45,-377.54"/>
<polygon fill="blue" stroke="black" points="627.95,-377.53 624.45,-367.53 620.95,-377.53 627.95,-377.53"/>
</g>
<!-- nltk_classify -->
<g id="node5" class="node">
<title>nltk_classify</title><style>.edge>path:hover{stroke-width:8}</style>
<polygon fill="blue" stroke="black" points="751.95,-439.43 676.95,-439.43 676.95,-403.43 751.95,-403.43 751.95,-439.43"/>
<text text-anchor="middle" x="714.45" y="-418.93" font-family="Helvetica,sans-Serif" font-size="10.00" fill="white">nltk.classify</text>
</g>
<!-- nltk_classify&#45;&gt;nltk -->
<g id="edge5" class="edge">
<title>nltk_classify&#45;&gt;nltk</title><style>.edge>path:hover{stroke-width:8}</style>
<path fill="none" stroke="black" d="M752.03,-403.58C772.95,-391.96 797.01,-374.28 808.45,-350.43"/>
</g>
<!-- nltk_classify&#45;&gt;nltk_data -->
<g id="edge6" class="edge">
<title>nltk_classify&#45;&gt;nltk_data</title><style>.edge>path:hover{stroke-width:8}</style>
<path fill="none" stroke="black" d="M692.2,-403.12C680.87,-394.31 666.92,-383.46 654.63,-373.9"/>
<polygon fill="blue" stroke="black" points="656.48,-370.91 646.44,-367.53 652.18,-376.43 656.48,-370.91"/>
</g>
<!-- nltk_cluster -->
<g id="node6" class="node">
<title>nltk_cluster</title><style>.edge>path:hover{stroke-width:8}</style>
<polygon fill="blue" stroke="black" points="583.95,-220.21 512.95,-220.21 512.95,-184.21 583.95,-184.21 583.95,-220.21"/>
<text text-anchor="middle" x="548.45" y="-199.71" font-family="Helvetica,sans-Serif" font-size="10.00" fill="white">nltk.cluster</text>
</g>
<!-- nltk_cluster&#45;&gt;nltk -->
<g id="edge7" class="edge">
<title>nltk_cluster&#45;&gt;nltk</title><style>.edge>path:hover{stroke-width:8}</style>
<path fill="none" stroke="black" d="M584.03,-184.38C587.18,-183.15 590.35,-182 593.45,-181 669.73,-156.33 762.58,-140.53 813.18,-133.07"/>
<polygon fill="blue" stroke="black" points="813.91,-136.5 823.31,-131.6 812.91,-129.57 813.91,-136.5"/>
</g>
<!-- nltk_collocations -->
<g id="node7" class="node">
<title>nltk_collocations</title><style>.edge>path:hover{stroke-width:8}</style>
<polygon fill="blue" stroke="black" points="277.95,-295.43 202.95,-295.43 202.95,-259.43 277.95,-259.43 277.95,-295.43"/>
<text text-anchor="middle" x="240.45" y="-280.43" font-family="Helvetica,sans-Serif" font-size="10.00" fill="white">nltk.</text>
<text text-anchor="middle" x="240.45" y="-269.43" font-family="Helvetica,sans-Serif" font-size="10.00" fill="white">collocations</text>
</g>
<!-- nltk_collocations&#45;&gt;nltk -->
<g id="edge8" class="edge">
<title>nltk_collocations&#45;&gt;nltk</title><style>.edge>path:hover{stroke-width:8}</style>
<path fill="none" stroke="black" d="M207.22,-259.24C183.6,-244.75 158.65,-223.23 174.45,-203.21"/>
</g>
<!-- nltk_text -->
<g id="node26" class="node">
<title>nltk_text</title><style>.edge>path:hover{stroke-width:8}</style>
<polygon fill="blue" stroke="black" points="335.45,-220.21 277.45,-220.21 277.45,-184.21 335.45,-184.21 335.45,-220.21"/>
<text text-anchor="middle" x="306.45" y="-199.71" font-family="Helvetica,sans-Serif" font-size="10.00" fill="white">nltk.text</text>
</g>
<!-- nltk_collocations&#45;&gt;nltk_text -->
<g id="edge9" class="edge">
<title>nltk_collocations&#45;&gt;nltk_text</title><style>.edge>path:hover{stroke-width:8}</style>
<path fill="none" stroke="black" d="M256.09,-259.08C264.47,-249.78 274.95,-238.16 284.17,-227.93"/>
<polygon fill="blue" stroke="black" points="286.82,-230.21 290.92,-220.44 281.62,-225.52 286.82,-230.21"/>
</g>
<!-- nltk_data&#45;&gt;nltk -->
<g id="edge10" class="edge">
<title>nltk_data&#45;&gt;nltk</title><style>.edge>path:hover{stroke-width:8}</style>
<path fill="none" stroke="black" d="M645.57,-331.26C666.12,-312.47 691.77,-282.04 673.45,-259.43 618.27,-191.34 464.79,-288.62 484.45,-203.21"/>
</g>
<!-- nltk_grammar -->
<g id="node12" class="node">
<title>nltk_grammar</title><style>.edge>path:hover{stroke-width:8}</style>
<polygon fill="blue" stroke="black" points="455.95,-295.43 372.95,-295.43 372.95,-259.43 455.95,-259.43 455.95,-295.43"/>
<text text-anchor="middle" x="414.45" y="-274.93" font-family="Helvetica,sans-Serif" font-size="10.00" fill="white">nltk.grammar</text>
</g>
<!-- nltk_data&#45;&gt;nltk_grammar -->
<g id="edge11" class="edge">
<title>nltk_data&#45;&gt;nltk_grammar</title><style>.edge>path:hover{stroke-width:8}</style>
<path fill="none" stroke="black" d="M584.48,-335.1C550.72,-323.85 502.15,-307.66 465.57,-295.47"/>
<polygon fill="blue" stroke="black" points="583.77,-338.56 594.36,-338.4 585.98,-331.91 583.77,-338.56"/>
<polygon fill="blue" stroke="black" points="466.66,-292.14 456.06,-292.3 464.44,-298.78 466.66,-292.14"/>
</g>
<!-- nltk_help -->
<g id="node13" class="node">
<title>nltk_help</title><style>.edge>path:hover{stroke-width:8}</style>
<polygon fill="blue" stroke="black" points="779.95,-295.43 720.95,-295.43 720.95,-259.43 779.95,-259.43 779.95,-295.43"/>
<text text-anchor="middle" x="750.45" y="-274.93" font-family="Helvetica,sans-Serif" font-size="10.00" fill="white">nltk.help</text>
</g>
<!-- nltk_data&#45;&gt;nltk_help -->
<g id="edge12" class="edge">
<title>nltk_data&#45;&gt;nltk_help</title><style>.edge>path:hover{stroke-width:8}</style>
<path fill="none" stroke="black" d="M654.63,-331.66C671.69,-322.18 693.22,-310.22 711.54,-300.04"/>
<polygon fill="blue" stroke="black" points="713.47,-302.97 720.51,-295.06 710.07,-296.85 713.47,-302.97"/>
</g>
<!-- nltk_tag -->
<g id="node24" class="node">
<title>nltk_tag</title><style>.edge>path:hover{stroke-width:8}</style>
<polygon fill="blue" stroke="black" points="566.45,-295.43 512.45,-295.43 512.45,-259.43 566.45,-259.43 566.45,-295.43"/>
<text text-anchor="middle" x="539.45" y="-274.93" font-family="Helvetica,sans-Serif" font-size="10.00" fill="white">nltk.tag</text>
</g>
<!-- nltk_data&#45;&gt;nltk_tag -->
<g id="edge13" class="edge">
<title>nltk_data&#45;&gt;nltk_tag</title><style>.edge>path:hover{stroke-width:8}</style>
<path fill="none" stroke="black" d="M595.68,-324.74C586.78,-317.4 576.97,-309.33 568.08,-302"/>
<polygon fill="blue" stroke="black" points="593.49,-327.47 603.44,-331.12 597.94,-322.06 593.49,-327.47"/>
<polygon fill="blue" stroke="black" points="570.16,-299.19 560.22,-295.53 565.71,-304.59 570.16,-299.19"/>
</g>
<!-- nltk_tokenize -->
<g id="node27" class="node">
<title>nltk_tokenize</title><style>.edge>path:hover{stroke-width:8}</style>
<polygon fill="blue" stroke="black" points="664.45,-295.43 584.45,-295.43 584.45,-259.43 664.45,-259.43 664.45,-295.43"/>
<text text-anchor="middle" x="624.45" y="-274.93" font-family="Helvetica,sans-Serif" font-size="10.00" fill="white">nltk.tokenize</text>
</g>
<!-- nltk_data&#45;&gt;nltk_tokenize -->
<g id="edge14" class="edge">
<title>nltk_data&#45;&gt;nltk_tokenize</title><style>.edge>path:hover{stroke-width:8}</style>
<path fill="none" stroke="black" d="M624.45,-321.09C624.45,-316.11 624.45,-310.92 624.45,-305.93"/>
<polygon fill="blue" stroke="black" points="620.95,-321.12 624.45,-331.12 627.95,-321.12 620.95,-321.12"/>
<polygon fill="blue" stroke="black" points="627.95,-305.53 624.45,-295.53 620.95,-305.53 627.95,-305.53"/>
</g>
<!-- nltk_decorators -->
<g id="node9" class="node">
<title>nltk_decorators</title><style>.edge>path:hover{stroke-width:8}</style>
<ellipse fill="#53b653" stroke="black" cx="650.45" cy="-202.21" rx="48.17" ry="21.43"/>
<text text-anchor="middle" x="650.45" y="-205.21" font-family="Helvetica,sans-Serif" font-size="10.00" fill="#000000">nltk.</text>
<text text-anchor="middle" x="650.45" y="-194.21" font-family="Helvetica,sans-Serif" font-size="10.00" fill="#000000">decorators</text>
</g>
<!-- nltk_decorators&#45;&gt;nltk -->
<g id="edge15" class="edge">
<title>nltk_decorators&#45;&gt;nltk</title><style>.edge>path:hover{stroke-width:8}</style>
<path fill="none" stroke="black" d="M686.67,-187.95C722.58,-174.81 777.32,-154.77 813.49,-141.53"/>
<polygon fill="#53b653" stroke="black" points="814.98,-144.71 823.16,-137.99 812.57,-138.14 814.98,-144.71"/>
</g>
<!-- nltk_downloader -->
<g id="node10" class="node">
<title>nltk_downloader</title><style>.edge>path:hover{stroke-width:8}</style>
<polygon fill="blue" stroke="black" points="790.45,-220.21 716.45,-220.21 716.45,-184.21 790.45,-184.21 790.45,-220.21"/>
<text text-anchor="middle" x="753.45" y="-205.21" font-family="Helvetica,sans-Serif" font-size="10.00" fill="white">nltk.</text>
<text text-anchor="middle" x="753.45" y="-194.21" font-family="Helvetica,sans-Serif" font-size="10.00" fill="white">downloader</text>
</g>
<!-- nltk_downloader&#45;&gt;nltk -->
<g id="edge16" class="edge">
<title>nltk_downloader&#45;&gt;nltk</title><style>.edge>path:hover{stroke-width:8}</style>
<path fill="none" stroke="black" d="M776.44,-183.86C789.24,-174.2 805.36,-162.03 819.29,-151.52"/>
<polygon fill="blue" stroke="black" points="821.75,-154.04 827.63,-145.23 817.53,-148.46 821.75,-154.04"/>
</g>
<!-- nltk_featstruct -->
<g id="node11" class="node">
<title>nltk_featstruct</title><style>.edge>path:hover{stroke-width:8}</style>
<polygon fill="blue" stroke="black" points="433.45,-367.43 369.45,-367.43 369.45,-331.43 433.45,-331.43 433.45,-367.43"/>
<text text-anchor="middle" x="401.45" y="-352.43" font-family="Helvetica,sans-Serif" font-size="10.00" fill="white">nltk.</text>
<text text-anchor="middle" x="401.45" y="-341.43" font-family="Helvetica,sans-Serif" font-size="10.00" fill="white">featstruct</text>
</g>
<!-- nltk_featstruct&#45;&gt;nltk -->
<g id="edge17" class="edge">
<title>nltk_featstruct&#45;&gt;nltk</title><style>.edge>path:hover{stroke-width:8}</style>
<path fill="none" stroke="black" d="M433.48,-335.98C456.25,-324.82 483.05,-305.91 484.45,-278.43"/>
<path fill="none" stroke="black" d="M484.45,-276.43C486.1,-243.93 477,-234.89 484.45,-203.21"/>
</g>
<!-- nltk_featstruct&#45;&gt;nltk_grammar -->
<g id="edge18" class="edge">
<title>nltk_featstruct&#45;&gt;nltk_grammar</title><style>.edge>path:hover{stroke-width:8}</style>
<path fill="none" stroke="black" d="M404.66,-331.12C406.09,-323.41 407.82,-314.14 409.41,-305.54"/>
<polygon fill="blue" stroke="black" points="412.89,-306 411.27,-295.53 406,-304.72 412.89,-306"/>
</g>
<!-- nltk_grammar&#45;&gt;nltk -->
<g id="edge19" class="edge">
<title>nltk_grammar&#45;&gt;nltk</title><style>.edge>path:hover{stroke-width:8}</style>
<path fill="none" stroke="black" d="M441.88,-259.17C459.09,-246.29 479,-226.86 484.45,-203.21"/>
</g>
<!-- nltk_help&#45;&gt;nltk -->
<g id="edge21" class="edge">
<title>nltk_help&#45;&gt;nltk</title><style>.edge>path:hover{stroke-width:8}</style>
<path fill="none" stroke="black" d="M720.89,-264.11C716.11,-262.38 711.18,-260.75 706.45,-259.43 608.41,-232.07 461.61,-302.4 484.45,-203.21"/>
</g>
<!-- nltk_inference -->
<g id="node14" class="node">
<title>nltk_inference</title><style>.edge>path:hover{stroke-width:8}</style>
<polygon fill="blue" stroke="black" points="892.45,-220.21 808.45,-220.21 808.45,-184.21 892.45,-184.21 892.45,-220.21"/>
<text text-anchor="middle" x="850.45" y="-199.71" font-family="Helvetica,sans-Serif" font-size="10.00" fill="white">nltk.inference</text>
</g>
<!-- nltk_inference&#45;&gt;nltk -->
<g id="edge22" class="edge">
<title>nltk_inference&#45;&gt;nltk</title><style>.edge>path:hover{stroke-width:8}</style>
<path fill="none" stroke="black" d="M850.45,-183.86C850.45,-175.38 850.45,-164.98 850.45,-155.45"/>
<polygon fill="blue" stroke="black" points="853.95,-155.23 850.45,-145.23 846.95,-155.23 853.95,-155.23"/>
</g>
<!-- nltk_internals -->
<g id="node15" class="node">
<title>nltk_internals</title><style>.edge>path:hover{stroke-width:8}</style>
<ellipse fill="#10f910" stroke="black" cx="310.45" cy="-421.43" rx="47.86" ry="18"/>
<text text-anchor="middle" x="310.45" y="-418.93" font-family="Helvetica,sans-Serif" font-size="10.00" fill="#000000">nltk.internals</text>
</g>
<!-- nltk_internals&#45;&gt;collections_py -->
<g id="edge23" class="edge">
<title>nltk_internals&#45;&gt;collections_py</title><style>.edge>path:hover{stroke-width:8}</style>
<path fill="none" stroke="black" d="M49.45,-201.21C92.59,-163.99 86.93,-115.92 49.45,-73"/>
<path fill="none" stroke="black" d="M49.45,-72C43.36,-65.06 42.05,-55.43 42.69,-46.28"/>
<polygon fill="#10f910" stroke="black" points="46.17,-46.71 44.11,-36.32 39.24,-45.72 46.17,-46.71"/>
</g>
<!-- nltk_internals&#45;&gt;nltk -->
<g id="edge24" class="edge">
<title>nltk_internals&#45;&gt;nltk</title><style>.edge>path:hover{stroke-width:8}</style>
<path fill="none" stroke="black" d="M264.42,-416.62C201.69,-410.43 94.19,-395.9 68.45,-367.43 19.17,-312.93 2.53,-259.76 49.45,-203.21"/>
<path fill="none" stroke="black" d="M49.45,-201.21C107.92,-150.77 663.33,-132.84 813.29,-128.9"/>
<polygon fill="#10f910" stroke="black" points="813.47,-132.39 823.37,-128.63 813.29,-125.39 813.47,-132.39"/>
</g>
<!-- nltk_internals&#45;&gt;nltk_data -->
<g id="edge25" class="edge">
<title>nltk_internals&#45;&gt;nltk_data</title><style>.edge>path:hover{stroke-width:8}</style>
<path fill="none" stroke="black" d="M350.53,-411.49C410.86,-398.04 524.33,-372.75 584.54,-359.32"/>
<polygon fill="#10f910" stroke="black" points="585.44,-362.71 594.44,-357.12 583.92,-355.88 585.44,-362.71"/>
</g>
<!-- nltk_internals&#45;&gt;nltk_featstruct -->
<g id="edge26" class="edge">
<title>nltk_internals&#45;&gt;nltk_featstruct</title><style>.edge>path:hover{stroke-width:8}</style>
<path fill="none" stroke="black" d="M330.64,-404.89C342.52,-395.75 357.78,-384.02 371.09,-373.78"/>
<polygon fill="#10f910" stroke="black" points="373.28,-376.51 379.07,-367.64 369.01,-370.96 373.28,-376.51"/>
</g>
<!-- nltk_internals&#45;&gt;nltk_grammar -->
<g id="edge27" class="edge">
<title>nltk_internals&#45;&gt;nltk_grammar</title><style>.edge>path:hover{stroke-width:8}</style>
<path fill="none" stroke="black" d="M318.17,-403.49C327.04,-384.91 342.67,-354.65 360.45,-331.43 368.24,-321.24 377.95,-311.11 386.98,-302.48"/>
<polygon fill="#10f910" stroke="black" points="389.41,-304.99 394.34,-295.61 384.64,-299.88 389.41,-304.99"/>
</g>
<!-- nltk_probability -->
<g id="node21" class="node">
<title>nltk_probability</title><style>.edge>path:hover{stroke-width:8}</style>
<polygon fill="blue" stroke="black" points="312.95,-367.43 243.95,-367.43 243.95,-331.43 312.95,-331.43 312.95,-367.43"/>
<text text-anchor="middle" x="278.45" y="-352.43" font-family="Helvetica,sans-Serif" font-size="10.00" fill="white">nltk.</text>
<text text-anchor="middle" x="278.45" y="-341.43" font-family="Helvetica,sans-Serif" font-size="10.00" fill="white">probability</text>
</g>
<!-- nltk_internals&#45;&gt;nltk_probability -->
<g id="edge28" class="edge">
<title>nltk_internals&#45;&gt;nltk_probability</title><style>.edge>path:hover{stroke-width:8}</style>
<path fill="none" stroke="black" d="M302.7,-403.48C299.06,-395.52 294.64,-385.84 290.57,-376.94"/>
<polygon fill="#10f910" stroke="black" points="293.69,-375.34 286.34,-367.7 287.32,-378.25 293.69,-375.34"/>
</g>
<!-- nltk_util -->
<g id="node30" class="node">
<title>nltk_util</title><style>.edge>path:hover{stroke-width:8}</style>
<polygon fill="blue" stroke="black" points="225.45,-367.43 171.45,-367.43 171.45,-331.43 225.45,-331.43 225.45,-367.43"/>
<text text-anchor="middle" x="198.45" y="-346.93" font-family="Helvetica,sans-Serif" font-size="10.00" fill="white">nltk.util</text>
</g>
<!-- nltk_internals&#45;&gt;nltk_util -->
<g id="edge29" class="edge">
<title>nltk_internals&#45;&gt;nltk_util</title><style>.edge>path:hover{stroke-width:8}</style>
<path fill="none" stroke="black" d="M286.97,-405.75C271.78,-396.26 251.72,-383.72 234.53,-372.98"/>
<polygon fill="#10f910" stroke="black" points="236.18,-369.88 225.84,-367.55 232.47,-375.82 236.18,-369.88"/>
</g>
<!-- nltk_jsontags -->
<g id="node16" class="node">
<title>nltk_jsontags</title><style>.edge>path:hover{stroke-width:8}</style>
<ellipse fill="#47c247" stroke="black" cx="817.45" cy="-421.43" rx="47.19" ry="18"/>
<text text-anchor="middle" x="817.45" y="-418.93" font-family="Helvetica,sans-Serif" font-size="10.00" fill="#000000">nltk.jsontags</text>
</g>
<!-- nltk_jsontags&#45;&gt;nltk -->
<g id="edge30" class="edge">
<title>nltk_jsontags&#45;&gt;nltk</title><style>.edge>path:hover{stroke-width:8}</style>
<path fill="none" stroke="black" d="M810.21,-403.47C805.08,-388.75 800.4,-367.22 808.45,-350.43"/>
</g>
<!-- nltk_jsontags&#45;&gt;nltk_data -->
<g id="edge31" class="edge">
<title>nltk_jsontags&#45;&gt;nltk_data</title><style>.edge>path:hover{stroke-width:8}</style>
<path fill="none" stroke="black" d="M784.27,-408.39C750.97,-396.32 699.67,-377.71 664.21,-364.85"/>
<polygon fill="#47c247" stroke="black" points="665.25,-361.5 654.66,-361.38 662.86,-368.08 665.25,-361.5"/>
</g>
<!-- nltk_lazyimport -->
<g id="node17" class="node">
<title>nltk_lazyimport</title><style>.edge>path:hover{stroke-width:8}</style>
<ellipse fill="#53b653" stroke="black" cx="959.45" cy="-202.21" rx="48.58" ry="21.43"/>
<text text-anchor="middle" x="959.45" y="-205.21" font-family="Helvetica,sans-Serif" font-size="10.00" fill="#000000">nltk.</text>
<text text-anchor="middle" x="959.45" y="-194.21" font-family="Helvetica,sans-Serif" font-size="10.00" fill="#000000">lazyimport</text>
</g>
<!-- nltk_lazyimport&#45;&gt;nltk -->
<g id="edge32" class="edge">
<title>nltk_lazyimport&#45;&gt;nltk</title><style>.edge>path:hover{stroke-width:8}</style>
<path fill="none" stroke="black" d="M933.89,-184.05C919.13,-174.13 900.38,-161.54 884.4,-150.8"/>
<polygon fill="#53b653" stroke="black" points="886.1,-147.73 875.84,-145.06 882.19,-153.54 886.1,-147.73"/>
</g>
<!-- nltk_metrics -->
<g id="node18" class="node">
<title>nltk_metrics</title><style>.edge>path:hover{stroke-width:8}</style>
<polygon fill="blue" stroke="black" points="152.95,-367.43 77.95,-367.43 77.95,-331.43 152.95,-331.43 152.95,-367.43"/>
<text text-anchor="middle" x="115.45" y="-346.93" font-family="Helvetica,sans-Serif" font-size="10.00" fill="white">nltk.metrics</text>
</g>
<!-- nltk_metrics&#45;&gt;nltk -->
<g id="edge33" class="edge">
<title>nltk_metrics&#45;&gt;nltk</title><style>.edge>path:hover{stroke-width:8}</style>
<path fill="none" stroke="black" d="M117.48,-331.25C119.94,-316.2 125.26,-294.29 136.45,-278.43"/>
<path fill="none" stroke="black" d="M136.45,-276.43C157.58,-246.47 151.29,-231.64 174.45,-203.21"/>
<path fill="none" stroke="black" d="M174.45,-201.21C215.1,-151.31 677.12,-133.3 813.05,-129.06"/>
<polygon fill="blue" stroke="black" points="813.47,-132.55 823.36,-128.74 813.26,-125.55 813.47,-132.55"/>
</g>
<!-- nltk_metrics&#45;&gt;nltk_collocations -->
<g id="edge34" class="edge">
<title>nltk_metrics&#45;&gt;nltk_collocations</title><style>.edge>path:hover{stroke-width:8}</style>
<path fill="none" stroke="black" d="M146.03,-331.3C162.52,-322.07 183.07,-310.56 200.78,-300.64"/>
<polygon fill="blue" stroke="black" points="202.74,-303.56 209.75,-295.62 199.32,-297.45 202.74,-303.56"/>
</g>
<!-- nltk_metrics&#45;&gt;nltk_text -->
<g id="edge35" class="edge">
<title>nltk_metrics&#45;&gt;nltk_text</title><style>.edge>path:hover{stroke-width:8}</style>
<path fill="none" stroke="black" d="M136.45,-276.43C166.6,-233.67 227.17,-215.68 267.27,-208.26"/>
<polygon fill="blue" stroke="black" points="267.97,-211.69 277.24,-206.55 266.79,-204.79 267.97,-211.69"/>
</g>
<!-- nltk_misc -->
<g id="node19" class="node">
<title>nltk_misc</title><style>.edge>path:hover{stroke-width:8}</style>
<polygon fill="blue" stroke="black" points="1088.45,-220.21 1026.45,-220.21 1026.45,-184.21 1088.45,-184.21 1088.45,-220.21"/>
<text text-anchor="middle" x="1057.45" y="-199.71" font-family="Helvetica,sans-Serif" font-size="10.00" fill="white">nltk.misc</text>
</g>
<!-- nltk_misc&#45;&gt;nltk -->
<g id="edge36" class="edge">
<title>nltk_misc&#45;&gt;nltk</title><style>.edge>path:hover{stroke-width:8}</style>
<path fill="none" stroke="black" d="M1026.23,-184.84C1023.29,-183.48 1020.33,-182.18 1017.45,-181 973.81,-163.18 921.8,-147.52 887.56,-137.92"/>
<polygon fill="blue" stroke="black" points="888.1,-134.44 877.53,-135.15 886.23,-141.19 888.1,-134.44"/>
</g>
<!-- nltk_parse -->
<g id="node20" class="node">
<title>nltk_parse</title><style>.edge>path:hover{stroke-width:8}</style>
<polygon fill="blue" stroke="black" points="516.95,-367.43 451.95,-367.43 451.95,-331.43 516.95,-331.43 516.95,-367.43"/>
<text text-anchor="middle" x="484.45" y="-346.93" font-family="Helvetica,sans-Serif" font-size="10.00" fill="white">nltk.parse</text>
</g>
<!-- nltk_parse&#45;&gt;nltk -->
<g id="edge37" class="edge">
<title>nltk_parse&#45;&gt;nltk</title><style>.edge>path:hover{stroke-width:8}</style>
<path fill="none" stroke="black" d="M483.96,-331.15C483.68,-316.98 483.54,-296.39 484.45,-278.43"/>
</g>
<!-- nltk_parse&#45;&gt;nltk_grammar -->
<g id="edge38" class="edge">
<title>nltk_parse&#45;&gt;nltk_grammar</title><style>.edge>path:hover{stroke-width:8}</style>
<path fill="none" stroke="black" d="M467.14,-331.12C458.58,-322.56 448.1,-312.08 438.75,-302.73"/>
<polygon fill="blue" stroke="black" points="441.1,-300.13 431.55,-295.53 436.15,-305.08 441.1,-300.13"/>
</g>
<!-- nltk_probability&#45;&gt;nltk -->
<g id="edge39" class="edge">
<title>nltk_probability&#45;&gt;nltk</title><style>.edge>path:hover{stroke-width:8}</style>
<path fill="none" stroke="black" d="M344.45,-276.43C381.01,-230.17 483.57,-206.96 484.45,-203.21"/>
<path fill="none" stroke="black" d="M484.45,-201.21C499.59,-136.82 723.37,-128.57 813.37,-127.87"/>
<polygon fill="blue" stroke="black" points="813.43,-131.37 823.41,-127.82 813.39,-124.37 813.43,-131.37"/>
</g>
<!-- nltk_probability&#45;&gt;nltk_collocations -->
<g id="edge40" class="edge">
<title>nltk_probability&#45;&gt;nltk_collocations</title><style>.edge>path:hover{stroke-width:8}</style>
<path fill="none" stroke="black" d="M269.05,-331.12C264.68,-323.07 259.39,-313.32 254.55,-304.41"/>
<polygon fill="blue" stroke="black" points="257.58,-302.65 249.73,-295.53 251.43,-305.99 257.58,-302.65"/>
</g>
<!-- nltk_probability&#45;&gt;nltk_grammar -->
<g id="edge41" class="edge">
<title>nltk_probability&#45;&gt;nltk_grammar</title><style>.edge>path:hover{stroke-width:8}</style>
<path fill="none" stroke="black" d="M311.72,-331.3C329.91,-321.94 352.64,-310.24 372.09,-300.23"/>
<polygon fill="blue" stroke="black" points="373.76,-303.3 381.05,-295.62 370.56,-297.08 373.76,-303.3"/>
</g>
<!-- nltk_probability&#45;&gt;nltk_text -->
<g id="edge42" class="edge">
<title>nltk_probability&#45;&gt;nltk_text</title><style>.edge>path:hover{stroke-width:8}</style>
<path fill="none" stroke="black" d="M296.16,-331.36C309.98,-317.64 329.33,-297.56 344.45,-278.43"/>
<path fill="none" stroke="black" d="M344.45,-276.43C356.17,-261.6 345.7,-242.6 332.81,-227.67"/>
<polygon fill="blue" stroke="black" points="335.32,-225.23 325.95,-220.28 330.19,-229.99 335.32,-225.23"/>
</g>
<!-- nltk_sem -->
<g id="node22" class="node">
<title>nltk_sem</title><style>.edge>path:hover{stroke-width:8}</style>
<polygon fill="blue" stroke="black" points="571.95,-439.43 512.95,-439.43 512.95,-403.43 571.95,-403.43 571.95,-439.43"/>
<text text-anchor="middle" x="542.45" y="-418.93" font-family="Helvetica,sans-Serif" font-size="10.00" fill="white">nltk.sem</text>
</g>
<!-- nltk_sem&#45;&gt;nltk -->
<g id="edge43" class="edge">
<title>nltk_sem&#45;&gt;nltk</title><style>.edge>path:hover{stroke-width:8}</style>
<path fill="none" stroke="black" d="M541.55,-403.32C540.05,-384.86 536.05,-354.94 525.45,-331.43 513.21,-304.28 482.94,-308.17 484.45,-278.43"/>
</g>
<!-- nltk_sem&#45;&gt;nltk_data -->
<g id="edge44" class="edge">
<title>nltk_sem&#45;&gt;nltk_data</title><style>.edge>path:hover{stroke-width:8}</style>
<path fill="none" stroke="black" d="M562.72,-403.12C572.95,-394.39 585.51,-383.67 596.63,-374.18"/>
<polygon fill="blue" stroke="black" points="599.08,-376.69 604.41,-367.53 594.53,-371.36 599.08,-376.69"/>
</g>
<!-- nltk_sem&#45;&gt;nltk_featstruct -->
<g id="edge45" class="edge">
<title>nltk_sem&#45;&gt;nltk_featstruct</title><style>.edge>path:hover{stroke-width:8}</style>
<path fill="none" stroke="black" d="M512.89,-405.75C492.52,-395.64 465.17,-382.06 442.67,-370.89"/>
<polygon fill="blue" stroke="black" points="444.18,-367.73 433.67,-366.42 441.07,-374 444.18,-367.73"/>
</g>
<!-- nltk_stem -->
<g id="node23" class="node">
<title>nltk_stem</title><style>.edge>path:hover{stroke-width:8}</style>
<polygon fill="blue" stroke="black" points="1169.95,-220.21 1106.95,-220.21 1106.95,-184.21 1169.95,-184.21 1169.95,-220.21"/>
<text text-anchor="middle" x="1138.45" y="-199.71" font-family="Helvetica,sans-Serif" font-size="10.00" fill="white">nltk.stem</text>
</g>
<!-- nltk_stem&#45;&gt;nltk -->
<g id="edge46" class="edge">
<title>nltk_stem&#45;&gt;nltk</title><style>.edge>path:hover{stroke-width:8}</style>
<path fill="none" stroke="black" d="M1106.54,-184.55C1103.51,-183.25 1100.45,-182.04 1097.45,-181 1025.28,-155.9 936.94,-140.42 887.87,-133.09"/>
<polygon fill="blue" stroke="black" points="888.12,-129.59 877.72,-131.6 887.11,-136.51 888.12,-129.59"/>
</g>
<!-- nltk_tag&#45;&gt;nltk -->
<g id="edge47" class="edge">
<title>nltk_tag&#45;&gt;nltk</title><style>.edge>path:hover{stroke-width:8}</style>
<path fill="none" stroke="black" d="M513.78,-259.17C497.11,-245.62 479.35,-225.37 484.45,-203.21"/>
</g>
<!-- nltk_tbl -->
<g id="node25" class="node">
<title>nltk_tbl</title><style>.edge>path:hover{stroke-width:8}</style>
<polygon fill="blue" stroke="black" points="1242.45,-220.21 1188.45,-220.21 1188.45,-184.21 1242.45,-184.21 1242.45,-220.21"/>
<text text-anchor="middle" x="1215.45" y="-199.71" font-family="Helvetica,sans-Serif" font-size="10.00" fill="white">nltk.tbl</text>
</g>
<!-- nltk_tbl&#45;&gt;nltk -->
<g id="edge49" class="edge">
<title>nltk_tbl&#45;&gt;nltk</title><style>.edge>path:hover{stroke-width:8}</style>
<path fill="none" stroke="black" d="M1188.4,-184.72C1185.44,-183.32 1182.43,-182.04 1179.45,-181 1077.72,-145.51 949.9,-133.61 887.77,-129.76"/>
<polygon fill="blue" stroke="black" points="887.86,-126.26 877.67,-129.17 887.45,-133.24 887.86,-126.26"/>
</g>
<!-- nltk_text&#45;&gt;nltk -->
<g id="edge50" class="edge">
<title>nltk_text&#45;&gt;nltk</title><style>.edge>path:hover{stroke-width:8}</style>
<path fill="none" stroke="black" d="M335.7,-197.28C427.67,-184.9 710.96,-146.77 813.18,-133.02"/>
<polygon fill="blue" stroke="black" points="813.89,-136.45 823.34,-131.65 812.96,-129.51 813.89,-136.45"/>
</g>
<!-- nltk_tokenize&#45;&gt;nltk -->
<g id="edge51" class="edge">
<title>nltk_tokenize&#45;&gt;nltk</title><style>.edge>path:hover{stroke-width:8}</style>
<path fill="none" stroke="black" d="M584.2,-260.83C554.56,-248.96 517.13,-233.08 503.45,-223.43 493.37,-216.32 481.68,-215.23 484.45,-203.21"/>
</g>
<!-- nltk_tokenize&#45;&gt;nltk_text -->
<g id="edge53" class="edge">
<title>nltk_tokenize&#45;&gt;nltk_text</title><style>.edge>path:hover{stroke-width:8}</style>
<path fill="none" stroke="black" d="M584.2,-262.01C581.25,-261.09 578.31,-260.22 575.45,-259.43 494.84,-237.12 398.48,-219 345.75,-209.8"/>
<polygon fill="blue" stroke="black" points="346.25,-206.33 335.8,-208.08 345.06,-213.23 346.25,-206.33"/>
</g>
<!-- nltk_translate -->
<g id="node28" class="node">
<title>nltk_translate</title><style>.edge>path:hover{stroke-width:8}</style>
<polygon fill="blue" stroke="black" points="1342.45,-220.21 1260.45,-220.21 1260.45,-184.21 1342.45,-184.21 1342.45,-220.21"/>
<text text-anchor="middle" x="1301.45" y="-199.71" font-family="Helvetica,sans-Serif" font-size="10.00" fill="white">nltk.translate</text>
</g>
<!-- nltk_translate&#45;&gt;nltk -->
<g id="edge54" class="edge">
<title>nltk_translate&#45;&gt;nltk</title><style>.edge>path:hover{stroke-width:8}</style>
<path fill="none" stroke="black" d="M1261.91,-184.18C1258.41,-182.99 1254.89,-181.91 1251.45,-181 1120.66,-146.52 959.68,-133.92 887.97,-129.8"/>
<polygon fill="blue" stroke="black" points="887.83,-126.28 877.65,-129.23 887.44,-133.27 887.83,-126.28"/>
</g>
<!-- nltk_tree -->
<g id="node29" class="node">
<title>nltk_tree</title><style>.edge>path:hover{stroke-width:8}</style>
<polygon fill="blue" stroke="black" points="1418.45,-220.21 1360.45,-220.21 1360.45,-184.21 1418.45,-184.21 1418.45,-220.21"/>
<text text-anchor="middle" x="1389.45" y="-199.71" font-family="Helvetica,sans-Serif" font-size="10.00" fill="white">nltk.tree</text>
</g>
<!-- nltk_tree&#45;&gt;nltk -->
<g id="edge55" class="edge">
<title>nltk_tree&#45;&gt;nltk</title><style>.edge>path:hover{stroke-width:8}</style>
<path fill="none" stroke="black" d="M1360.04,-184.2C1357.2,-182.97 1354.31,-181.88 1351.45,-181 1184.03,-129.74 972.09,-126.24 887.63,-127.15"/>
<polygon fill="blue" stroke="black" points="887.46,-123.65 877.51,-127.29 887.55,-130.65 887.46,-123.65"/>
</g>
<!-- nltk_util&#45;&gt;nltk -->
<g id="edge56" class="edge">
<title>nltk_util&#45;&gt;nltk</title><style>.edge>path:hover{stroke-width:8}</style>
<path fill="none" stroke="black" d="M187.97,-331.11C171.58,-301.56 144.68,-240.92 174.45,-203.21"/>
</g>
<!-- nltk_util&#45;&gt;nltk_collocations -->
<g id="edge57" class="edge">
<title>nltk_util&#45;&gt;nltk_collocations</title><style>.edge>path:hover{stroke-width:8}</style>
<path fill="none" stroke="black" d="M208.83,-331.12C213.71,-322.99 219.63,-313.12 225.03,-304.13"/>
<polygon fill="blue" stroke="black" points="228.04,-305.91 230.19,-295.53 222.04,-302.3 228.04,-305.91"/>
</g>
<!-- nltk_util&#45;&gt;nltk_grammar -->
<g id="edge58" class="edge">
<title>nltk_util&#45;&gt;nltk_grammar</title><style>.edge>path:hover{stroke-width:8}</style>
<path fill="none" stroke="black" d="M225.77,-334.98C228.67,-333.71 231.6,-332.5 234.45,-331.43 288.12,-311.11 303.43,-311.76 358.45,-295.43 359.91,-294.99 361.39,-294.55 362.89,-294.1"/>
<polygon fill="blue" stroke="black" points="364.3,-297.33 372.87,-291.11 362.29,-290.63 364.3,-297.33"/>
</g>
<!-- nltk_util&#45;&gt;nltk_text -->
<g id="edge59" class="edge">
<title>nltk_util&#45;&gt;nltk_text</title><style>.edge>path:hover{stroke-width:8}</style>
<path fill="none" stroke="black" d="M225.86,-334.98C248.63,-323.29 278.51,-306.52 286.45,-295.43 299.96,-276.54 304.64,-250.3 306.13,-230.64"/>
<polygon fill="blue" stroke="black" points="309.63,-230.65 306.66,-220.48 302.64,-230.28 309.63,-230.65"/>
</g>
<!-- nltk_wsd -->
<g id="node31" class="node">
<title>nltk_wsd</title><style>.edge>path:hover{stroke-width:8}</style>
<polygon fill="blue" stroke="black" points="1494.45,-220.21 1436.45,-220.21 1436.45,-184.21 1494.45,-184.21 1494.45,-220.21"/>
<text text-anchor="middle" x="1465.45" y="-199.71" font-family="Helvetica,sans-Serif" font-size="10.00" fill="white">nltk.wsd</text>
</g>
<!-- nltk_wsd&#45;&gt;nltk -->
<g id="edge60" class="edge">
<title>nltk_wsd&#45;&gt;nltk</title><style>.edge>path:hover{stroke-width:8}</style>
<path fill="none" stroke="black" d="M1436.06,-184.15C1433.21,-182.94 1430.31,-181.86 1427.45,-181 1325.55,-150.57 998.39,-134.25 887.56,-129.49"/>
<polygon fill="blue" stroke="black" points="887.66,-125.99 877.53,-129.07 887.37,-132.99 887.66,-125.99"/>
</g>
<!-- numpy -->
<g id="node32" class="node">
<title>numpy</title><style>.edge>path:hover{stroke-width:8}</style>
<ellipse fill="#4040c0" stroke="black" cx="1541.45" cy="-202.21" rx="29.37" ry="18"/>
<text text-anchor="middle" x="1541.45" y="-199.71" font-family="Helvetica,sans-Serif" font-size="10.00" fill="#ffffff">numpy</text>
</g>
<!-- numpy&#45;&gt;nltk -->
<g id="edge61" class="edge">
<title>numpy&#45;&gt;nltk</title><style>.edge>path:hover{stroke-width:8}</style>
<path fill="none" stroke="black" d="M1521.59,-188.7C1515.93,-185.68 1509.61,-182.81 1503.45,-181 1386.63,-146.78 1008.67,-132.73 887.91,-129.05"/>
<polygon fill="#4040c0" stroke="black" points="887.79,-125.54 877.69,-128.74 887.58,-132.54 887.79,-125.54"/>
</g>
</g>
</svg>
