<?xml version="1.0" encoding="UTF-8" standalone="no"?>
<!DOCTYPE svg PUBLIC "-//W3C//DTD SVG 1.1//EN"
 "http://www.w3.org/Graphics/SVG/1.1/DTD/svg11.dtd">
<!-- Generated by graphviz version 2.43.0 (0)
 -->
<!-- Title: G Pages: 1 -->
<svg width="1734pt" height="678pt"
 viewBox="0.00 0.00 1733.67 678.43" xmlns="http://www.w3.org/2000/svg" xmlns:xlink="http://www.w3.org/1999/xlink">
<g id="graph0" class="graph" transform="scale(1 1) rotate(0) translate(4 674.43)">
<title>G</title><style>.edge>path:hover{stroke-width:8}</style>
<polygon fill="white" stroke="transparent" points="-4,4 -4,-674.43 1729.67,-674.43 1729.67,4 -4,4"/>
<!-- book_py -->
<g id="node1" class="node">
<title>book_py</title><style>.edge>path:hover{stroke-width:8}</style>
<ellipse fill="#8b4b4b" stroke="black" cx="531.67" cy="-18" rx="32.93" ry="18"/>
<text text-anchor="middle" x="531.67" y="-15.5" font-family="Helvetica,sans-Serif" font-size="10.00" fill="#ffffff">book.py</text>
</g>
<!-- nltk -->
<g id="node2" class="node">
<title>nltk</title><style>.edge>path:hover{stroke-width:8}</style>
<polygon fill="blue" stroke="black" points="774.67,-145 720.67,-145 720.67,-109 774.67,-109 774.67,-145"/>
<text text-anchor="middle" x="747.67" y="-124.5" font-family="Helvetica,sans-Serif" font-size="10.00" fill="white">nltk</text>
</g>
<!-- nltk&#45;&gt;book_py -->
<g id="edge1" class="edge">
<title>nltk&#45;&gt;book_py</title><style>.edge>path:hover{stroke-width:8}</style>
<path fill="none" stroke="black" d="M720.5,-123.9C666.99,-119.1 551.46,-105.14 531.67,-73"/>
</g>
<!-- nltk_ccg -->
<g id="node3" class="node">
<title>nltk_ccg</title><style>.edge>path:hover{stroke-width:8}</style>
<polygon fill="blue" stroke="black" points="1663.17,-220.21 1608.17,-220.21 1608.17,-184.21 1663.17,-184.21 1663.17,-220.21"/>
<text text-anchor="middle" x="1635.67" y="-199.71" font-family="Helvetica,sans-Serif" font-size="10.00" fill="white">nltk.ccg</text>
</g>
<!-- nltk_ccg&#45;&gt;nltk -->
<g id="edge2" class="edge">
<title>nltk_ccg&#45;&gt;nltk</title><style>.edge>path:hover{stroke-width:8}</style>
<path fill="none" stroke="black" d="M1607.94,-184.42C1604.89,-183.08 1601.77,-181.89 1598.67,-181 1442.58,-135.93 928.5,-129.18 785.11,-128.18"/>
<polygon fill="blue" stroke="black" points="785.07,-124.68 775.05,-128.11 785.02,-131.68 785.07,-124.68"/>
</g>
<!-- nltk_chunk -->
<g id="node4" class="node">
<title>nltk_chunk</title><style>.edge>path:hover{stroke-width:8}</style>
<polygon fill="blue" stroke="black" points="1725.67,-670.43 1657.67,-670.43 1657.67,-634.43 1725.67,-634.43 1725.67,-670.43"/>
<text text-anchor="middle" x="1691.67" y="-649.93" font-family="Helvetica,sans-Serif" font-size="10.00" fill="white">nltk.chunk</text>
</g>
<!-- nltk_chunk&#45;&gt;nltk -->
<g id="edge3" class="edge">
<title>nltk_chunk&#45;&gt;nltk</title><style>.edge>path:hover{stroke-width:8}</style>
<path fill="none" stroke="black" d="M1686.06,-634.15C1682,-618.03 1679.16,-594.22 1691.67,-578.93"/>
</g>
<!-- nltk_data -->
<g id="node12" class="node">
<title>nltk_data</title><style>.edge>path:hover{stroke-width:8}</style>
<polygon fill="blue" stroke="black" points="914.67,-595.93 854.67,-595.93 854.67,-559.93 914.67,-559.93 914.67,-595.93"/>
<text text-anchor="middle" x="884.67" y="-575.43" font-family="Helvetica,sans-Serif" font-size="10.00" fill="white">nltk.data</text>
</g>
<!-- nltk_chunk&#45;&gt;nltk_data -->
<g id="edge4" class="edge">
<title>nltk_chunk&#45;&gt;nltk_data</title><style>.edge>path:hover{stroke-width:8}</style>
<path fill="none" stroke="black" d="M1657.23,-636.77C1654.36,-635.87 1651.49,-635.07 1648.67,-634.43 1508.73,-602.47 1061.53,-584.94 924.78,-580.23"/>
<polygon fill="blue" stroke="black" points="924.85,-576.73 914.74,-579.89 924.61,-583.73 924.85,-576.73"/>
</g>
<!-- nltk_classify -->
<g id="node5" class="node">
<title>nltk_classify</title><style>.edge>path:hover{stroke-width:8}</style>
<polygon fill="blue" stroke="black" points="1224.17,-670.43 1149.17,-670.43 1149.17,-634.43 1224.17,-634.43 1224.17,-670.43"/>
<text text-anchor="middle" x="1186.67" y="-649.93" font-family="Helvetica,sans-Serif" font-size="10.00" fill="white">nltk.classify</text>
</g>
<!-- nltk_classify&#45;&gt;nltk -->
<g id="edge5" class="edge">
<title>nltk_classify&#45;&gt;nltk</title><style>.edge>path:hover{stroke-width:8}</style>
<path fill="none" stroke="black" d="M1224.32,-649.13C1336.9,-641.83 1664.88,-617.41 1691.67,-578.93"/>
<path fill="none" stroke="black" d="M1691.67,-576.93C1729.64,-522.4 1691.67,-493.87 1691.67,-427.43 1691.67,-427.43 1691.67,-427.43 1691.67,-276.43 1691.67,-233.18 1705.3,-209.38 1672.67,-181 1638.62,-151.39 953.31,-132.96 784.84,-128.87"/>
<polygon fill="blue" stroke="black" points="784.8,-125.37 774.72,-128.62 784.63,-132.36 784.8,-125.37"/>
</g>
<!-- nltk_classify&#45;&gt;nltk_data -->
<g id="edge6" class="edge">
<title>nltk_classify&#45;&gt;nltk_data</title><style>.edge>path:hover{stroke-width:8}</style>
<path fill="none" stroke="black" d="M1149.03,-642.39C1091.91,-628.68 983.76,-602.71 925.05,-588.62"/>
<polygon fill="blue" stroke="black" points="925.57,-585.14 915.03,-586.21 923.93,-591.95 925.57,-585.14"/>
</g>
<!-- nltk_cluster -->
<g id="node6" class="node">
<title>nltk_cluster</title><style>.edge>path:hover{stroke-width:8}</style>
<polygon fill="blue" stroke="black" points="847.17,-220.21 776.17,-220.21 776.17,-184.21 847.17,-184.21 847.17,-220.21"/>
<text text-anchor="middle" x="811.67" y="-199.71" font-family="Helvetica,sans-Serif" font-size="10.00" fill="white">nltk.cluster</text>
</g>
<!-- nltk_cluster&#45;&gt;nltk -->
<g id="edge7" class="edge">
<title>nltk_cluster&#45;&gt;nltk</title><style>.edge>path:hover{stroke-width:8}</style>
<path fill="none" stroke="black" d="M796.5,-183.86C788.45,-174.65 778.42,-163.17 769.54,-153.02"/>
<polygon fill="blue" stroke="black" points="771.95,-150.45 762.73,-145.23 766.68,-155.06 771.95,-150.45"/>
</g>
<!-- nltk_collections -->
<g id="node7" class="node">
<title>nltk_collections</title><style>.edge>path:hover{stroke-width:8}</style>
<polygon fill="blue" stroke="black" points="371.17,-595.93 302.17,-595.93 302.17,-559.93 371.17,-559.93 371.17,-595.93"/>
<text text-anchor="middle" x="336.67" y="-580.93" font-family="Helvetica,sans-Serif" font-size="10.00" fill="white">nltk.</text>
<text text-anchor="middle" x="336.67" y="-569.93" font-family="Helvetica,sans-Serif" font-size="10.00" fill="white">collections</text>
</g>
<!-- nltk_util -->
<g id="node37" class="node">
<title>nltk_util</title><style>.edge>path:hover{stroke-width:8}</style>
<polygon fill="blue" stroke="black" points="361.67,-518.93 307.67,-518.93 307.67,-482.93 361.67,-482.93 361.67,-518.93"/>
<text text-anchor="middle" x="334.67" y="-498.43" font-family="Helvetica,sans-Serif" font-size="10.00" fill="white">nltk.util</text>
</g>
<!-- nltk_collections&#45;&gt;nltk_util -->
<g id="edge8" class="edge">
<title>nltk_collections&#45;&gt;nltk_util</title><style>.edge>path:hover{stroke-width:8}</style>
<path fill="none" stroke="black" d="M336.22,-559.91C335.98,-550.86 335.67,-539.52 335.4,-529.28"/>
<polygon fill="blue" stroke="black" points="338.9,-529.04 335.13,-519.14 331.9,-529.23 338.9,-529.04"/>
</g>
<!-- nltk_collocations -->
<g id="node8" class="node">
<title>nltk_collocations</title><style>.edge>path:hover{stroke-width:8}</style>
<polygon fill="blue" stroke="black" points="463.17,-295.43 388.17,-295.43 388.17,-259.43 463.17,-259.43 463.17,-295.43"/>
<text text-anchor="middle" x="425.67" y="-280.43" font-family="Helvetica,sans-Serif" font-size="10.00" fill="white">nltk.</text>
<text text-anchor="middle" x="425.67" y="-269.43" font-family="Helvetica,sans-Serif" font-size="10.00" fill="white">collocations</text>
</g>
<!-- nltk_collocations&#45;&gt;nltk -->
<g id="edge9" class="edge">
<title>nltk_collocations&#45;&gt;nltk</title><style>.edge>path:hover{stroke-width:8}</style>
<path fill="none" stroke="black" d="M441.91,-259.08C467.06,-232.29 513.04,-183.62 517.67,-181 579.34,-146.09 662.64,-134.16 710.21,-130.09"/>
<polygon fill="blue" stroke="black" points="710.67,-133.57 720.36,-129.3 710.12,-126.59 710.67,-133.57"/>
</g>
<!-- nltk_text -->
<g id="node33" class="node">
<title>nltk_text</title><style>.edge>path:hover{stroke-width:8}</style>
<polygon fill="blue" stroke="black" points="465.67,-220.21 407.67,-220.21 407.67,-184.21 465.67,-184.21 465.67,-220.21"/>
<text text-anchor="middle" x="436.67" y="-199.71" font-family="Helvetica,sans-Serif" font-size="10.00" fill="white">nltk.text</text>
</g>
<!-- nltk_collocations&#45;&gt;nltk_text -->
<g id="edge10" class="edge">
<title>nltk_collocations&#45;&gt;nltk_text</title><style>.edge>path:hover{stroke-width:8}</style>
<path fill="none" stroke="black" d="M428.28,-259.08C429.57,-250.51 431.15,-239.97 432.59,-230.36"/>
<polygon fill="blue" stroke="black" points="436.06,-230.85 434.08,-220.44 429.14,-229.81 436.06,-230.85"/>
</g>
<!-- nltk_corpus -->
<g id="node9" class="node">
<title>nltk_corpus</title><style>.edge>path:hover{stroke-width:8}</style>
<polygon fill="blue" stroke="black" points="433.17,-444.43 362.17,-444.43 362.17,-408.43 433.17,-408.43 433.17,-444.43"/>
<text text-anchor="middle" x="397.67" y="-423.93" font-family="Helvetica,sans-Serif" font-size="10.00" fill="white">nltk.corpus</text>
</g>
<!-- nltk_corpus&#45;&gt;book_py -->
<g id="edge11" class="edge">
<title>nltk_corpus&#45;&gt;book_py</title><style>.edge>path:hover{stroke-width:8}</style>
<path fill="none" stroke="black" d="M362,-422.71C286.09,-416.48 111.2,-399.56 58.67,-372.43 47.92,-366.87 44.37,-364.08 39.67,-352.93"/>
<path fill="none" stroke="black" d="M39.67,-350.93C27.15,-321.24 28.36,-308.6 39.67,-278.43"/>
</g>
<!-- nltk_corpus&#45;&gt;nltk_collocations -->
<g id="edge12" class="edge">
<title>nltk_corpus&#45;&gt;nltk_collocations</title><style>.edge>path:hover{stroke-width:8}</style>
<path fill="none" stroke="black" d="M374.23,-408.16C356.01,-392.7 336.23,-369.91 351.67,-352.93"/>
</g>
<!-- nltk_downloader -->
<g id="node14" class="node">
<title>nltk_downloader</title><style>.edge>path:hover{stroke-width:8}</style>
<polygon fill="blue" stroke="black" points="579.67,-369.93 505.67,-369.93 505.67,-333.93 579.67,-333.93 579.67,-369.93"/>
<text text-anchor="middle" x="542.67" y="-354.93" font-family="Helvetica,sans-Serif" font-size="10.00" fill="white">nltk.</text>
<text text-anchor="middle" x="542.67" y="-343.93" font-family="Helvetica,sans-Serif" font-size="10.00" fill="white">downloader</text>
</g>
<!-- nltk_corpus&#45;&gt;nltk_downloader -->
<g id="edge13" class="edge">
<title>nltk_corpus&#45;&gt;nltk_downloader</title><style>.edge>path:hover{stroke-width:8}</style>
<path fill="none" stroke="black" d="M432.03,-408.24C452.26,-398.13 478.02,-385.25 499.59,-374.47"/>
<polygon fill="blue" stroke="black" points="501.18,-377.59 508.56,-369.98 498.05,-371.33 501.18,-377.59"/>
</g>
<!-- nltk_grammar -->
<g id="node17" class="node">
<title>nltk_grammar</title><style>.edge>path:hover{stroke-width:8}</style>
<polygon fill="blue" stroke="black" points="719.17,-295.43 636.17,-295.43 636.17,-259.43 719.17,-259.43 719.17,-295.43"/>
<text text-anchor="middle" x="677.67" y="-274.93" font-family="Helvetica,sans-Serif" font-size="10.00" fill="white">nltk.grammar</text>
</g>
<!-- nltk_corpus&#45;&gt;nltk_grammar -->
<g id="edge14" class="edge">
<title>nltk_corpus&#45;&gt;nltk_grammar</title><style>.edge>path:hover{stroke-width:8}</style>
<path fill="none" stroke="black" d="M417.79,-408.42C429.63,-398.23 444.76,-384.87 457.67,-372.43 475.78,-354.97 475.2,-344.52 496.67,-331.43 536.41,-307.19 587.81,-293.53 625.69,-286.17"/>
<polygon fill="blue" stroke="black" points="626.79,-289.53 635.99,-284.26 625.52,-282.64 626.79,-289.53"/>
</g>
<!-- nltk_probability -->
<g id="node28" class="node">
<title>nltk_probability</title><style>.edge>path:hover{stroke-width:8}</style>
<polygon fill="blue" stroke="black" points="449.17,-369.93 380.17,-369.93 380.17,-333.93 449.17,-333.93 449.17,-369.93"/>
<text text-anchor="middle" x="414.67" y="-354.93" font-family="Helvetica,sans-Serif" font-size="10.00" fill="white">nltk.</text>
<text text-anchor="middle" x="414.67" y="-343.93" font-family="Helvetica,sans-Serif" font-size="10.00" fill="white">probability</text>
</g>
<!-- nltk_corpus&#45;&gt;nltk_probability -->
<g id="edge15" class="edge">
<title>nltk_corpus&#45;&gt;nltk_probability</title><style>.edge>path:hover{stroke-width:8}</style>
<path fill="none" stroke="black" d="M401.7,-408.24C403.69,-399.76 406.14,-389.32 408.37,-379.81"/>
<polygon fill="blue" stroke="black" points="411.8,-380.52 410.67,-369.98 404.98,-378.92 411.8,-380.52"/>
</g>
<!-- nltk_corpus&#45;&gt;nltk_text -->
<g id="edge16" class="edge">
<title>nltk_corpus&#45;&gt;nltk_text</title><style>.edge>path:hover{stroke-width:8}</style>
<path fill="none" stroke="black" d="M361.98,-424.84C324.33,-422.07 266.66,-411.26 238.67,-372.43 213.11,-336.96 240.34,-312.55 267.67,-278.43"/>
<path fill="none" stroke="black" d="M267.67,-276.43C298.24,-234.46 358.01,-216.28 397.65,-208.59"/>
<polygon fill="blue" stroke="black" points="398.29,-212.03 407.51,-206.81 397.05,-205.14 398.29,-212.03"/>
</g>
<!-- nltk_wsd -->
<g id="node38" class="node">
<title>nltk_wsd</title><style>.edge>path:hover{stroke-width:8}</style>
<polygon fill="blue" stroke="black" points="163.67,-295.43 105.67,-295.43 105.67,-259.43 163.67,-259.43 163.67,-295.43"/>
<text text-anchor="middle" x="134.67" y="-274.93" font-family="Helvetica,sans-Serif" font-size="10.00" fill="white">nltk.wsd</text>
</g>
<!-- nltk_corpus&#45;&gt;nltk_wsd -->
<g id="edge17" class="edge">
<title>nltk_corpus&#45;&gt;nltk_wsd</title><style>.edge>path:hover{stroke-width:8}</style>
<path fill="none" stroke="black" d="M39.67,-350.93C33.59,-336.5 67.68,-313.9 96.7,-297.76"/>
<polygon fill="blue" stroke="black" points="98.38,-300.83 105.5,-292.98 95.04,-294.68 98.38,-300.83"/>
</g>
<!-- nltk_corpus_reader -->
<g id="node10" class="node">
<title>nltk_corpus_reader</title><style>.edge>path:hover{stroke-width:8}</style>
<polygon fill="blue" stroke="black" points="487.67,-598.43 433.67,-598.43 433.67,-557.43 487.67,-557.43 487.67,-598.43"/>
<text text-anchor="middle" x="460.67" y="-586.43" font-family="Helvetica,sans-Serif" font-size="10.00" fill="white">nltk.</text>
<text text-anchor="middle" x="460.67" y="-575.43" font-family="Helvetica,sans-Serif" font-size="10.00" fill="white">corpus.</text>
<text text-anchor="middle" x="460.67" y="-564.43" font-family="Helvetica,sans-Serif" font-size="10.00" fill="white">reader</text>
</g>
<!-- nltk_corpus_reader&#45;&gt;nltk_corpus -->
<g id="edge18" class="edge">
<title>nltk_corpus_reader&#45;&gt;nltk_corpus</title><style>.edge>path:hover{stroke-width:8}</style>
<path fill="none" stroke="black" d="M463.15,-557.3C464.55,-542.05 465.36,-520.45 461.67,-501.93"/>
<path fill="none" stroke="black" d="M461.67,-499.93C457.83,-480.61 444.08,-463.78 430.3,-451.21"/>
<polygon fill="blue" stroke="black" points="432.57,-448.54 422.7,-444.67 428,-453.85 432.57,-448.54"/>
</g>
<!-- nltk_corpus_util -->
<g id="node11" class="node">
<title>nltk_corpus_util</title><style>.edge>path:hover{stroke-width:8}</style>
<polygon fill="blue" stroke="black" points="433.67,-521.43 379.67,-521.43 379.67,-480.43 433.67,-480.43 433.67,-521.43"/>
<text text-anchor="middle" x="406.67" y="-509.43" font-family="Helvetica,sans-Serif" font-size="10.00" fill="white">nltk.</text>
<text text-anchor="middle" x="406.67" y="-498.43" font-family="Helvetica,sans-Serif" font-size="10.00" fill="white">corpus.</text>
<text text-anchor="middle" x="406.67" y="-487.43" font-family="Helvetica,sans-Serif" font-size="10.00" fill="white">util</text>
</g>
<!-- nltk_corpus_reader&#45;&gt;nltk_corpus_util -->
<g id="edge19" class="edge">
<title>nltk_corpus_reader&#45;&gt;nltk_corpus_util</title><style>.edge>path:hover{stroke-width:8}</style>
<path fill="none" stroke="black" d="M446.48,-557.22C440.47,-548.87 433.35,-538.98 426.81,-529.89"/>
<polygon fill="blue" stroke="black" points="429.45,-527.57 420.77,-521.5 423.77,-531.66 429.45,-527.57"/>
</g>
<!-- nltk_corpus_reader&#45;&gt;nltk_downloader -->
<g id="edge20" class="edge">
<title>nltk_corpus_reader&#45;&gt;nltk_downloader</title><style>.edge>path:hover{stroke-width:8}</style>
<path fill="none" stroke="black" d="M461.67,-499.93C452.27,-452.64 488.85,-405.08 515.91,-377.35"/>
<polygon fill="blue" stroke="black" points="518.61,-379.59 523.24,-370.07 513.68,-374.63 518.61,-379.59"/>
</g>
<!-- nltk_corpus_util&#45;&gt;nltk_corpus -->
<g id="edge21" class="edge">
<title>nltk_corpus_util&#45;&gt;nltk_corpus</title><style>.edge>path:hover{stroke-width:8}</style>
<path fill="none" stroke="black" d="M404.21,-480.12C403.25,-472.33 402.12,-463.27 401.08,-454.87"/>
<polygon fill="blue" stroke="black" points="404.53,-454.24 399.82,-444.75 397.58,-455.1 404.53,-454.24"/>
</g>
<!-- nltk_data&#45;&gt;nltk -->
<g id="edge22" class="edge">
<title>nltk_data&#45;&gt;nltk</title><style>.edge>path:hover{stroke-width:8}</style>
<path fill="none" stroke="black" d="M899.47,-559.66C911.47,-545.02 928.23,-523.09 939.67,-501.93"/>
<path fill="none" stroke="black" d="M939.67,-499.93C955,-471.58 934,-459.15 939.67,-427.43"/>
</g>
<!-- nltk_data&#45;&gt;nltk_grammar -->
<g id="edge23" class="edge">
<title>nltk_data&#45;&gt;nltk_grammar</title><style>.edge>path:hover{stroke-width:8}</style>
<path fill="none" stroke="black" d="M856.48,-553.2C816.33,-517.89 743.1,-447.57 702.67,-372.43 691.4,-351.47 684.96,-325.11 681.45,-305.64"/>
<polygon fill="blue" stroke="black" points="854.2,-555.86 864.05,-559.79 858.8,-550.58 854.2,-555.86"/>
<polygon fill="blue" stroke="black" points="684.88,-304.9 679.79,-295.61 677.97,-306.04 684.88,-304.9"/>
</g>
<!-- nltk_help -->
<g id="node18" class="node">
<title>nltk_help</title><style>.edge>path:hover{stroke-width:8}</style>
<polygon fill="blue" stroke="black" points="1027.17,-444.43 968.17,-444.43 968.17,-408.43 1027.17,-408.43 1027.17,-444.43"/>
<text text-anchor="middle" x="997.67" y="-423.93" font-family="Helvetica,sans-Serif" font-size="10.00" fill="white">nltk.help</text>
</g>
<!-- nltk_data&#45;&gt;nltk_help -->
<g id="edge24" class="edge">
<title>nltk_data&#45;&gt;nltk_help</title><style>.edge>path:hover{stroke-width:8}</style>
<path fill="none" stroke="black" d="M939.67,-499.93C948.94,-482.78 962.39,-465.66 974.01,-452.37"/>
<polygon fill="blue" stroke="black" points="976.89,-454.4 980.95,-444.61 971.67,-449.73 976.89,-454.4"/>
</g>
<!-- nltk_tag -->
<g id="node31" class="node">
<title>nltk_tag</title><style>.edge>path:hover{stroke-width:8}</style>
<polygon fill="blue" stroke="black" points="911.67,-518.93 857.67,-518.93 857.67,-482.93 911.67,-482.93 911.67,-518.93"/>
<text text-anchor="middle" x="884.67" y="-498.43" font-family="Helvetica,sans-Serif" font-size="10.00" fill="white">nltk.tag</text>
</g>
<!-- nltk_data&#45;&gt;nltk_tag -->
<g id="edge25" class="edge">
<title>nltk_data&#45;&gt;nltk_tag</title><style>.edge>path:hover{stroke-width:8}</style>
<path fill="none" stroke="black" d="M884.67,-549.79C884.67,-543.08 884.67,-535.88 884.67,-529.17"/>
<polygon fill="blue" stroke="black" points="881.17,-549.91 884.67,-559.91 888.17,-549.91 881.17,-549.91"/>
<polygon fill="blue" stroke="black" points="888.17,-529.14 884.67,-519.14 881.17,-529.14 888.17,-529.14"/>
</g>
<!-- nltk_tokenize -->
<g id="node34" class="node">
<title>nltk_tokenize</title><style>.edge>path:hover{stroke-width:8}</style>
<polygon fill="blue" stroke="black" points="763.67,-518.93 683.67,-518.93 683.67,-482.93 763.67,-482.93 763.67,-518.93"/>
<text text-anchor="middle" x="723.67" y="-498.43" font-family="Helvetica,sans-Serif" font-size="10.00" fill="white">nltk.tokenize</text>
</g>
<!-- nltk_data&#45;&gt;nltk_tokenize -->
<g id="edge26" class="edge">
<title>nltk_data&#45;&gt;nltk_tokenize</title><style>.edge>path:hover{stroke-width:8}</style>
<path fill="none" stroke="black" d="M845.22,-558.55C822.34,-547.89 793.42,-534.42 769.53,-523.29"/>
<polygon fill="blue" stroke="black" points="843.85,-561.77 854.39,-562.82 846.8,-555.42 843.85,-561.77"/>
<polygon fill="blue" stroke="black" points="770.85,-520.04 760.31,-518.99 767.9,-526.39 770.85,-520.04"/>
</g>
<!-- nltk_decorators -->
<g id="node13" class="node">
<title>nltk_decorators</title><style>.edge>path:hover{stroke-width:8}</style>
<ellipse fill="#53b6b6" stroke="black" cx="913.67" cy="-202.21" rx="48.17" ry="21.43"/>
<text text-anchor="middle" x="913.67" y="-205.21" font-family="Helvetica,sans-Serif" font-size="10.00" fill="#000000">nltk.</text>
<text text-anchor="middle" x="913.67" y="-194.21" font-family="Helvetica,sans-Serif" font-size="10.00" fill="#000000">decorators</text>
</g>
<!-- nltk_decorators&#45;&gt;nltk -->
<g id="edge27" class="edge">
<title>nltk_decorators&#45;&gt;nltk</title><style>.edge>path:hover{stroke-width:8}</style>
<path fill="none" stroke="black" d="M880.48,-186.57C852.6,-174.28 812.82,-156.73 784.07,-144.05"/>
<polygon fill="#53b6b6" stroke="black" points="785.34,-140.79 774.78,-139.95 782.51,-147.19 785.34,-140.79"/>
</g>
<!-- nltk_downloader&#45;&gt;nltk -->
<g id="edge28" class="edge">
<title>nltk_downloader&#45;&gt;nltk</title><style>.edge>path:hover{stroke-width:8}</style>
<path fill="none" stroke="black" d="M554.99,-333.86C570.07,-313.93 597.26,-280.94 626.67,-259.43 674.53,-224.42 737.57,-261.64 747.67,-203.21"/>
<path fill="none" stroke="black" d="M747.67,-201.21C749.54,-186.18 749.67,-169.29 749.27,-155.51"/>
<polygon fill="blue" stroke="black" points="752.76,-155.09 748.87,-145.23 745.77,-155.36 752.76,-155.09"/>
</g>
<!-- nltk_draw -->
<g id="node15" class="node">
<title>nltk_draw</title><style>.edge>path:hover{stroke-width:8}</style>
<polygon fill="blue" stroke="black" points="589.67,-444.43 527.67,-444.43 527.67,-408.43 589.67,-408.43 589.67,-444.43"/>
<text text-anchor="middle" x="558.67" y="-423.93" font-family="Helvetica,sans-Serif" font-size="10.00" fill="white">nltk.draw</text>
</g>
<!-- nltk_draw&#45;&gt;nltk_downloader -->
<g id="edge29" class="edge">
<title>nltk_draw&#45;&gt;nltk_downloader</title><style>.edge>path:hover{stroke-width:8}</style>
<path fill="none" stroke="black" d="M554.88,-408.24C553.01,-399.76 550.7,-389.32 548.6,-379.81"/>
<polygon fill="blue" stroke="black" points="552.01,-379 546.44,-369.98 545.17,-380.5 552.01,-379"/>
</g>
<!-- nltk_draw&#45;&gt;nltk_text -->
<g id="edge30" class="edge">
<title>nltk_draw&#45;&gt;nltk_text</title><style>.edge>path:hover{stroke-width:8}</style>
<path fill="none" stroke="black" d="M571.4,-408.27C577.96,-398.35 585.28,-385.31 588.67,-372.43 593.31,-354.81 593.52,-348.99 588.67,-331.43 578.76,-295.5 572.83,-284.95 545.67,-259.43 525.53,-240.5 497.8,-226.32 475.34,-216.93"/>
<polygon fill="blue" stroke="black" points="476.35,-213.56 465.76,-213.08 473.74,-220.06 476.35,-213.56"/>
</g>
<!-- nltk_featstruct -->
<g id="node16" class="node">
<title>nltk_featstruct</title><style>.edge>path:hover{stroke-width:8}</style>
<polygon fill="blue" stroke="black" points="709.67,-444.43 645.67,-444.43 645.67,-408.43 709.67,-408.43 709.67,-444.43"/>
<text text-anchor="middle" x="677.67" y="-429.43" font-family="Helvetica,sans-Serif" font-size="10.00" fill="white">nltk.</text>
<text text-anchor="middle" x="677.67" y="-418.43" font-family="Helvetica,sans-Serif" font-size="10.00" fill="white">featstruct</text>
</g>
<!-- nltk_featstruct&#45;&gt;nltk -->
<g id="edge31" class="edge">
<title>nltk_featstruct&#45;&gt;nltk</title><style>.edge>path:hover{stroke-width:8}</style>
<path fill="none" stroke="black" d="M709.76,-414.16C738.65,-403.3 777.88,-386.47 786.67,-372.43 796.34,-356.98 792.36,-348.74 786.67,-331.43 777.55,-303.64 752.82,-307.22 747.67,-278.43"/>
</g>
<!-- nltk_featstruct&#45;&gt;nltk_grammar -->
<g id="edge32" class="edge">
<title>nltk_featstruct&#45;&gt;nltk_grammar</title><style>.edge>path:hover{stroke-width:8}</style>
<path fill="none" stroke="black" d="M663.34,-408.28C653.13,-394.03 641.84,-372.92 645.67,-352.93"/>
</g>
<!-- nltk_grammar&#45;&gt;nltk -->
<g id="edge33" class="edge">
<title>nltk_grammar&#45;&gt;nltk</title><style>.edge>path:hover{stroke-width:8}</style>
<path fill="none" stroke="black" d="M705.94,-259.34C723.52,-246.53 743.54,-227.13 747.67,-203.21"/>
</g>
<!-- nltk_help&#45;&gt;nltk -->
<g id="edge35" class="edge">
<title>nltk_help&#45;&gt;nltk</title><style>.edge>path:hover{stroke-width:8}</style>
<path fill="none" stroke="black" d="M977.84,-408.36C963.95,-394.94 946.67,-374.89 939.67,-352.93"/>
</g>
<!-- nltk_inference -->
<g id="node19" class="node">
<title>nltk_inference</title><style>.edge>path:hover{stroke-width:8}</style>
<polygon fill="blue" stroke="black" points="1063.67,-220.21 979.67,-220.21 979.67,-184.21 1063.67,-184.21 1063.67,-220.21"/>
<text text-anchor="middle" x="1021.67" y="-199.71" font-family="Helvetica,sans-Serif" font-size="10.00" fill="white">nltk.inference</text>
</g>
<!-- nltk_inference&#45;&gt;nltk -->
<g id="edge36" class="edge">
<title>nltk_inference&#45;&gt;nltk</title><style>.edge>path:hover{stroke-width:8}</style>
<path fill="none" stroke="black" d="M980.1,-184.17C976.93,-183.04 973.76,-181.97 970.67,-181 906.37,-160.73 829.51,-144.08 784.88,-135.13"/>
<polygon fill="blue" stroke="black" points="785.28,-131.64 774.79,-133.13 783.91,-138.51 785.28,-131.64"/>
</g>
<!-- nltk_internals -->
<g id="node20" class="node">
<title>nltk_internals</title><style>.edge>path:hover{stroke-width:8}</style>
<ellipse fill="#10f9f9" stroke="black" cx="555.67" cy="-652.43" rx="47.86" ry="18"/>
<text text-anchor="middle" x="555.67" y="-649.93" font-family="Helvetica,sans-Serif" font-size="10.00" fill="#000000">nltk.internals</text>
</g>
<!-- nltk_internals&#45;&gt;nltk -->
<g id="edge37" class="edge">
<title>nltk_internals&#45;&gt;nltk</title><style>.edge>path:hover{stroke-width:8}</style>
<path fill="none" stroke="black" d="M685.67,-576.93C720.42,-530.85 774.54,-557.04 791.67,-501.93"/>
<path fill="none" stroke="black" d="M791.67,-499.93C819.2,-411.4 967.82,-441.26 939.67,-352.93"/>
<path fill="none" stroke="black" d="M939.67,-350.93C926.66,-327.36 744.35,-229.92 747.67,-203.21"/>
</g>
<!-- nltk_internals&#45;&gt;nltk_collections -->
<g id="edge38" class="edge">
<title>nltk_internals&#45;&gt;nltk_collections</title><style>.edge>path:hover{stroke-width:8}</style>
<path fill="none" stroke="black" d="M519.9,-640.5C486.19,-630.08 434.31,-613.76 389.67,-598.43 386.8,-597.44 383.84,-596.41 380.87,-595.35"/>
<polygon fill="#10f9f9" stroke="black" points="381.97,-592.03 371.38,-591.94 379.6,-598.62 381.97,-592.03"/>
</g>
<!-- nltk_internals&#45;&gt;nltk_data -->
<g id="edge39" class="edge">
<title>nltk_internals&#45;&gt;nltk_data</title><style>.edge>path:hover{stroke-width:8}</style>
<path fill="none" stroke="black" d="M596.91,-643.12C646.54,-633.02 732.37,-615.24 805.67,-598.43 818.26,-595.54 831.93,-592.23 844.3,-589.16"/>
<polygon fill="#10f9f9" stroke="black" points="845.48,-592.48 854.34,-586.66 843.79,-585.68 845.48,-592.48"/>
</g>
<!-- nltk_internals&#45;&gt;nltk_featstruct -->
<g id="edge40" class="edge">
<title>nltk_internals&#45;&gt;nltk_featstruct</title><style>.edge>path:hover{stroke-width:8}</style>
<path fill="none" stroke="black" d="M617.67,-499.93C608.11,-481.95 622.08,-464.3 638.93,-450.91"/>
<polygon fill="#10f9f9" stroke="black" points="641.37,-453.45 647.34,-444.7 637.22,-447.82 641.37,-453.45"/>
</g>
<!-- nltk_internals&#45;&gt;nltk_grammar -->
<g id="edge41" class="edge">
<title>nltk_internals&#45;&gt;nltk_grammar</title><style>.edge>path:hover{stroke-width:8}</style>
<path fill="none" stroke="black" d="M617.67,-499.93C602.37,-471.57 596.36,-451.59 617.67,-427.43"/>
</g>
<!-- nltk_internals&#45;&gt;nltk_probability -->
<g id="edge42" class="edge">
<title>nltk_internals&#45;&gt;nltk_probability</title><style>.edge>path:hover{stroke-width:8}</style>
<path fill="none" stroke="black" d="M591.78,-640.46C621.44,-629.58 662.25,-609.98 685.67,-578.93"/>
<path fill="none" stroke="black" d="M685.67,-576.93C712.76,-541 638.79,-541.65 617.67,-501.93"/>
<path fill="none" stroke="black" d="M617.67,-499.93C593.99,-455.39 559.84,-473.58 518.67,-444.43 489.61,-423.84 459.37,-396.46 439.04,-377.02"/>
<polygon fill="#10f9f9" stroke="black" points="441.38,-374.42 431.76,-370 436.52,-379.46 441.38,-374.42"/>
</g>
<!-- nltk_internals&#45;&gt;nltk_util -->
<g id="edge43" class="edge">
<title>nltk_internals&#45;&gt;nltk_util</title><style>.edge>path:hover{stroke-width:8}</style>
<path fill="none" stroke="black" d="M518.24,-641.09C490.81,-632.41 453.48,-618.23 424.67,-598.43 409.34,-587.89 377.24,-551.88 355.81,-526.96"/>
<polygon fill="#10f9f9" stroke="black" points="358.43,-524.63 349.27,-519.3 353.11,-529.18 358.43,-524.63"/>
</g>
<!-- nltk_jsontags -->
<g id="node21" class="node">
<title>nltk_jsontags</title><style>.edge>path:hover{stroke-width:8}</style>
<ellipse fill="#47c2c2" stroke="black" cx="1592.67" cy="-652.43" rx="47.19" ry="18"/>
<text text-anchor="middle" x="1592.67" y="-649.93" font-family="Helvetica,sans-Serif" font-size="10.00" fill="#000000">nltk.jsontags</text>
</g>
<!-- nltk_jsontags&#45;&gt;nltk -->
<g id="edge44" class="edge">
<title>nltk_jsontags&#45;&gt;nltk</title><style>.edge>path:hover{stroke-width:8}</style>
<path fill="none" stroke="black" d="M1618.7,-637.41C1640.52,-624.58 1671.31,-603.83 1691.67,-578.93"/>
</g>
<!-- nltk_jsontags&#45;&gt;nltk_data -->
<g id="edge45" class="edge">
<title>nltk_jsontags&#45;&gt;nltk_data</title><style>.edge>path:hover{stroke-width:8}</style>
<path fill="none" stroke="black" d="M1547.85,-646.84C1418.92,-633.63 1048.5,-595.7 925.17,-583.07"/>
<polygon fill="#47c2c2" stroke="black" points="925.33,-579.57 915.03,-582.03 924.62,-586.54 925.33,-579.57"/>
</g>
<!-- nltk_lazyimport -->
<g id="node22" class="node">
<title>nltk_lazyimport</title><style>.edge>path:hover{stroke-width:8}</style>
<ellipse fill="#53b6b6" stroke="black" cx="1130.67" cy="-202.21" rx="48.58" ry="21.43"/>
<text text-anchor="middle" x="1130.67" y="-205.21" font-family="Helvetica,sans-Serif" font-size="10.00" fill="#000000">nltk.</text>
<text text-anchor="middle" x="1130.67" y="-194.21" font-family="Helvetica,sans-Serif" font-size="10.00" fill="#000000">lazyimport</text>
</g>
<!-- nltk_lazyimport&#45;&gt;nltk -->
<g id="edge46" class="edge">
<title>nltk_lazyimport&#45;&gt;nltk</title><style>.edge>path:hover{stroke-width:8}</style>
<path fill="none" stroke="black" d="M1094.77,-187.61C1087.52,-185.18 1079.91,-182.84 1072.67,-181 970.21,-155 846.22,-138.91 785.25,-131.98"/>
<polygon fill="#53b6b6" stroke="black" points="785.29,-128.46 774.96,-130.83 784.51,-135.42 785.29,-128.46"/>
</g>
<!-- nltk_lm -->
<g id="node23" class="node">
<title>nltk_lm</title><style>.edge>path:hover{stroke-width:8}</style>
<polygon fill="blue" stroke="black" points="369.67,-295.43 315.67,-295.43 315.67,-259.43 369.67,-259.43 369.67,-295.43"/>
<text text-anchor="middle" x="342.67" y="-274.93" font-family="Helvetica,sans-Serif" font-size="10.00" fill="white">nltk.lm</text>
</g>
<!-- nltk_lm&#45;&gt;nltk_text -->
<g id="edge47" class="edge">
<title>nltk_lm&#45;&gt;nltk_text</title><style>.edge>path:hover{stroke-width:8}</style>
<path fill="none" stroke="black" d="M364.95,-259.08C377.36,-249.41 392.98,-237.24 406.48,-226.73"/>
<polygon fill="blue" stroke="black" points="408.82,-229.35 414.56,-220.44 404.52,-223.82 408.82,-229.35"/>
</g>
<!-- nltk_lm_preprocessing -->
<g id="node24" class="node">
<title>nltk_lm_preprocessing</title><style>.edge>path:hover{stroke-width:8}</style>
<polygon fill="blue" stroke="black" points="153.17,-372.43 68.17,-372.43 68.17,-331.43 153.17,-331.43 153.17,-372.43"/>
<text text-anchor="middle" x="110.67" y="-360.43" font-family="Helvetica,sans-Serif" font-size="10.00" fill="white">nltk.</text>
<text text-anchor="middle" x="110.67" y="-349.43" font-family="Helvetica,sans-Serif" font-size="10.00" fill="white">lm.</text>
<text text-anchor="middle" x="110.67" y="-338.43" font-family="Helvetica,sans-Serif" font-size="10.00" fill="white">preprocessing</text>
</g>
<!-- nltk_lm_preprocessing&#45;&gt;nltk_text -->
<g id="edge48" class="edge">
<title>nltk_lm_preprocessing&#45;&gt;nltk_text</title><style>.edge>path:hover{stroke-width:8}</style>
<path fill="none" stroke="black" d="M132.67,-331.22C156.52,-309.86 191.28,-278.73 191.67,-278.43"/>
<path fill="none" stroke="black" d="M191.67,-276.43C253.18,-228.67 345.43,-211.99 397.41,-206.21"/>
<polygon fill="blue" stroke="black" points="397.97,-209.67 407.56,-205.17 397.25,-202.71 397.97,-209.67"/>
</g>
<!-- nltk_metrics -->
<g id="node25" class="node">
<title>nltk_metrics</title><style>.edge>path:hover{stroke-width:8}</style>
<polygon fill="blue" stroke="black" points="323.17,-369.93 248.17,-369.93 248.17,-333.93 323.17,-333.93 323.17,-369.93"/>
<text text-anchor="middle" x="285.67" y="-349.43" font-family="Helvetica,sans-Serif" font-size="10.00" fill="white">nltk.metrics</text>
</g>
<!-- nltk_metrics&#45;&gt;nltk -->
<g id="edge49" class="edge">
<title>nltk_metrics&#45;&gt;nltk</title><style>.edge>path:hover{stroke-width:8}</style>
<path fill="none" stroke="black" d="M261.87,-333.9C220.24,-302.45 143.06,-235.5 191.67,-203.21"/>
</g>
<!-- nltk_metrics&#45;&gt;nltk_collocations -->
<g id="edge50" class="edge">
<title>nltk_metrics&#45;&gt;nltk_collocations</title><style>.edge>path:hover{stroke-width:8}</style>
<path fill="none" stroke="black" d="M318.85,-333.74C338.29,-323.68 363.03,-310.87 383.8,-300.11"/>
<polygon fill="blue" stroke="black" points="385.46,-303.19 392.73,-295.48 382.24,-296.98 385.46,-303.19"/>
</g>
<!-- nltk_metrics&#45;&gt;nltk_text -->
<g id="edge51" class="edge">
<title>nltk_metrics&#45;&gt;nltk_text</title><style>.edge>path:hover{stroke-width:8}</style>
<path fill="none" stroke="black" d="M273.97,-333.91C264.6,-317.99 254.94,-294.32 267.67,-278.43"/>
</g>
<!-- nltk_misc -->
<g id="node26" class="node">
<title>nltk_misc</title><style>.edge>path:hover{stroke-width:8}</style>
<polygon fill="blue" stroke="black" points="1259.67,-220.21 1197.67,-220.21 1197.67,-184.21 1259.67,-184.21 1259.67,-220.21"/>
<text text-anchor="middle" x="1228.67" y="-199.71" font-family="Helvetica,sans-Serif" font-size="10.00" fill="white">nltk.misc</text>
</g>
<!-- nltk_misc&#45;&gt;nltk -->
<g id="edge52" class="edge">
<title>nltk_misc&#45;&gt;nltk</title><style>.edge>path:hover{stroke-width:8}</style>
<path fill="none" stroke="black" d="M1197.66,-184.25C1194.68,-183.01 1191.65,-181.9 1188.67,-181 1043.81,-137.18 861.85,-129.4 784.83,-128.15"/>
<polygon fill="blue" stroke="black" points="784.72,-124.65 774.68,-128.02 784.63,-131.65 784.72,-124.65"/>
</g>
<!-- nltk_parse -->
<g id="node27" class="node">
<title>nltk_parse</title><style>.edge>path:hover{stroke-width:8}</style>
<polygon fill="blue" stroke="black" points="777.17,-369.93 712.17,-369.93 712.17,-333.93 777.17,-333.93 777.17,-369.93"/>
<text text-anchor="middle" x="744.67" y="-349.43" font-family="Helvetica,sans-Serif" font-size="10.00" fill="white">nltk.parse</text>
</g>
<!-- nltk_parse&#45;&gt;nltk -->
<g id="edge53" class="edge">
<title>nltk_parse&#45;&gt;nltk</title><style>.edge>path:hover{stroke-width:8}</style>
<path fill="none" stroke="black" d="M747.46,-333.79C749.37,-319.01 751.02,-297.15 747.67,-278.43"/>
<path fill="none" stroke="black" d="M747.67,-276.43C741.95,-244.39 742.13,-235.28 747.67,-203.21"/>
</g>
<!-- nltk_parse&#45;&gt;nltk_grammar -->
<g id="edge54" class="edge">
<title>nltk_parse&#45;&gt;nltk_grammar</title><style>.edge>path:hover{stroke-width:8}</style>
<path fill="none" stroke="black" d="M728.79,-333.74C720.28,-324.54 709.65,-313.03 700.29,-302.9"/>
<polygon fill="blue" stroke="black" points="702.79,-300.45 693.44,-295.48 697.65,-305.2 702.79,-300.45"/>
</g>
<!-- nltk_probability&#45;&gt;book_py -->
<g id="edge55" class="edge">
<title>nltk_probability&#45;&gt;book_py</title><style>.edge>path:hover{stroke-width:8}</style>
<path fill="none" stroke="black" d="M531.67,-276.43C538.78,-244.67 516.61,-232.06 531.67,-203.21"/>
<path fill="none" stroke="black" d="M531.67,-201.21C546.73,-172.37 513.56,-155.03 531.67,-128"/>
</g>
<!-- nltk_probability&#45;&gt;nltk -->
<g id="edge56" class="edge">
<title>nltk_probability&#45;&gt;nltk</title><style>.edge>path:hover{stroke-width:8}</style>
<path fill="none" stroke="black" d="M531.67,-201.21C548.58,-168.83 653.33,-145.09 710.51,-134.36"/>
<polygon fill="blue" stroke="black" points="711.39,-137.76 720.6,-132.51 710.13,-130.87 711.39,-137.76"/>
</g>
<!-- nltk_probability&#45;&gt;nltk_collocations -->
<g id="edge57" class="edge">
<title>nltk_probability&#45;&gt;nltk_collocations</title><style>.edge>path:hover{stroke-width:8}</style>
<path fill="none" stroke="black" d="M417.28,-333.74C418.55,-325.35 420.12,-315.04 421.55,-305.61"/>
<polygon fill="blue" stroke="black" points="425.04,-305.9 423.08,-295.48 418.12,-304.85 425.04,-305.9"/>
</g>
<!-- nltk_probability&#45;&gt;nltk_grammar -->
<g id="edge58" class="edge">
<title>nltk_probability&#45;&gt;nltk_grammar</title><style>.edge>path:hover{stroke-width:8}</style>
<path fill="none" stroke="black" d="M449.26,-336.49C454.06,-334.68 458.96,-332.94 463.67,-331.43 518.27,-313.89 582.26,-298.73 625.95,-289.16"/>
<polygon fill="blue" stroke="black" points="626.75,-292.57 635.78,-287.03 625.26,-285.73 626.75,-292.57"/>
</g>
<!-- nltk_probability&#45;&gt;nltk_text -->
<g id="edge59" class="edge">
<title>nltk_probability&#45;&gt;nltk_text</title><style>.edge>path:hover{stroke-width:8}</style>
<path fill="none" stroke="black" d="M449.31,-336.14C482.28,-321.03 527.47,-297.2 531.67,-278.43"/>
<path fill="none" stroke="black" d="M531.67,-276.43C538.5,-245.94 504.69,-226.04 475.53,-214.79"/>
<polygon fill="blue" stroke="black" points="476.48,-211.41 465.89,-211.3 474.1,-217.99 476.48,-211.41"/>
</g>
<!-- nltk_sem -->
<g id="node29" class="node">
<title>nltk_sem</title><style>.edge>path:hover{stroke-width:8}</style>
<polygon fill="blue" stroke="black" points="825.17,-670.43 766.17,-670.43 766.17,-634.43 825.17,-634.43 825.17,-670.43"/>
<text text-anchor="middle" x="795.67" y="-649.93" font-family="Helvetica,sans-Serif" font-size="10.00" fill="white">nltk.sem</text>
</g>
<!-- nltk_sem&#45;&gt;nltk -->
<g id="edge60" class="edge">
<title>nltk_sem&#45;&gt;nltk</title><style>.edge>path:hover{stroke-width:8}</style>
<path fill="none" stroke="black" d="M791.67,-576.93C779.94,-545.73 781.78,-533.76 791.67,-501.93"/>
</g>
<!-- nltk_sem&#45;&gt;nltk_data -->
<g id="edge61" class="edge">
<title>nltk_sem&#45;&gt;nltk_data</title><style>.edge>path:hover{stroke-width:8}</style>
<path fill="none" stroke="black" d="M816.76,-634.24C828.4,-624.76 843.03,-612.85 855.72,-602.51"/>
<polygon fill="blue" stroke="black" points="858.19,-605.01 863.73,-595.98 853.77,-599.59 858.19,-605.01"/>
</g>
<!-- nltk_sem&#45;&gt;nltk_featstruct -->
<g id="edge62" class="edge">
<title>nltk_sem&#45;&gt;nltk_featstruct</title><style>.edge>path:hover{stroke-width:8}</style>
<path fill="none" stroke="black" d="M797.8,-634.33C798.98,-619.19 798.98,-596.78 791.67,-578.93"/>
<path fill="none" stroke="black" d="M791.67,-576.93C769.87,-523.66 705.44,-570.07 674.67,-521.43 662.11,-501.57 664.62,-474.33 669.23,-454.29"/>
<polygon fill="blue" stroke="black" points="672.63,-455.09 671.76,-444.54 665.86,-453.34 672.63,-455.09"/>
</g>
<!-- nltk_stem -->
<g id="node30" class="node">
<title>nltk_stem</title><style>.edge>path:hover{stroke-width:8}</style>
<polygon fill="blue" stroke="black" points="1341.17,-220.21 1278.17,-220.21 1278.17,-184.21 1341.17,-184.21 1341.17,-220.21"/>
<text text-anchor="middle" x="1309.67" y="-199.71" font-family="Helvetica,sans-Serif" font-size="10.00" fill="white">nltk.stem</text>
</g>
<!-- nltk_stem&#45;&gt;nltk -->
<g id="edge63" class="edge">
<title>nltk_stem&#45;&gt;nltk</title><style>.edge>path:hover{stroke-width:8}</style>
<path fill="none" stroke="black" d="M1277.88,-184.2C1274.82,-182.97 1271.72,-181.88 1268.67,-181 1092.93,-130.52 871.77,-126.64 785.02,-127.3"/>
<polygon fill="blue" stroke="black" points="784.84,-123.8 774.88,-127.41 784.91,-130.8 784.84,-123.8"/>
</g>
<!-- nltk_tag&#45;&gt;nltk -->
<g id="edge64" class="edge">
<title>nltk_tag&#45;&gt;nltk</title><style>.edge>path:hover{stroke-width:8}</style>
<path fill="none" stroke="black" d="M905.33,-482.74C919.24,-469.4 935.73,-449.51 939.67,-427.43"/>
<path fill="none" stroke="black" d="M939.67,-425.43C945.34,-393.71 949.46,-383.63 939.67,-352.93"/>
</g>
<!-- nltk_tbl -->
<g id="node32" class="node">
<title>nltk_tbl</title><style>.edge>path:hover{stroke-width:8}</style>
<polygon fill="blue" stroke="black" points="1413.67,-220.21 1359.67,-220.21 1359.67,-184.21 1413.67,-184.21 1413.67,-220.21"/>
<text text-anchor="middle" x="1386.67" y="-199.71" font-family="Helvetica,sans-Serif" font-size="10.00" fill="white">nltk.tbl</text>
</g>
<!-- nltk_tbl&#45;&gt;nltk -->
<g id="edge66" class="edge">
<title>nltk_tbl&#45;&gt;nltk</title><style>.edge>path:hover{stroke-width:8}</style>
<path fill="none" stroke="black" d="M1359.29,-184.32C1356.45,-183.03 1353.55,-181.89 1350.67,-181 1244.05,-148.06 899.35,-133.3 784.96,-129.22"/>
<polygon fill="blue" stroke="black" points="785.05,-125.72 774.93,-128.87 784.8,-132.72 785.05,-125.72"/>
</g>
<!-- nltk_text&#45;&gt;book_py -->
<g id="edge67" class="edge">
<title>nltk_text&#45;&gt;book_py</title><style>.edge>path:hover{stroke-width:8}</style>
<path fill="none" stroke="black" d="M465.73,-185.74C487.01,-172.96 514.98,-152.91 531.67,-128"/>
</g>
<!-- nltk_text&#45;&gt;nltk -->
<g id="edge68" class="edge">
<title>nltk_text&#45;&gt;nltk</title><style>.edge>path:hover{stroke-width:8}</style>
<path fill="none" stroke="black" d="M465.89,-186.32C470.43,-184.35 475.13,-182.49 479.67,-181 559.77,-154.69 657.84,-139.37 710.31,-132.45"/>
<polygon fill="blue" stroke="black" points="711.02,-135.89 720.49,-131.14 710.12,-128.95 711.02,-135.89"/>
</g>
<!-- nltk_tokenize&#45;&gt;nltk -->
<g id="edge69" class="edge">
<title>nltk_tokenize&#45;&gt;nltk</title><style>.edge>path:hover{stroke-width:8}</style>
<path fill="none" stroke="black" d="M785.67,-276.43C761.02,-249.29 743.15,-239.59 747.67,-203.21"/>
</g>
<!-- nltk_tokenize&#45;&gt;nltk_corpus -->
<g id="edge70" class="edge">
<title>nltk_tokenize&#45;&gt;nltk_corpus</title><style>.edge>path:hover{stroke-width:8}</style>
<path fill="none" stroke="black" d="M683.37,-490.96C622.41,-477.41 507.1,-451.76 443.19,-437.55"/>
<polygon fill="blue" stroke="black" points="443.91,-434.12 433.39,-435.37 442.39,-440.96 443.91,-434.12"/>
</g>
<!-- nltk_tokenize&#45;&gt;nltk_text -->
<g id="edge72" class="edge">
<title>nltk_tokenize&#45;&gt;nltk_text</title><style>.edge>path:hover{stroke-width:8}</style>
<path fill="none" stroke="black" d="M733.26,-482.84C743.78,-464.28 761.35,-433.89 777.67,-408.43 788.19,-392.03 796.85,-391.02 802.67,-372.43 815.36,-331.91 819.73,-303.78 785.67,-278.43"/>
<path fill="none" stroke="black" d="M785.67,-276.43C766.23,-255.02 735.62,-269.23 517.67,-223.43 503.88,-220.53 488.88,-216.92 475.59,-213.55"/>
<polygon fill="blue" stroke="black" points="476.35,-210.13 465.79,-211.04 474.61,-216.91 476.35,-210.13"/>
</g>
<!-- nltk_translate -->
<g id="node35" class="node">
<title>nltk_translate</title><style>.edge>path:hover{stroke-width:8}</style>
<polygon fill="blue" stroke="black" points="1513.67,-220.21 1431.67,-220.21 1431.67,-184.21 1513.67,-184.21 1513.67,-220.21"/>
<text text-anchor="middle" x="1472.67" y="-199.71" font-family="Helvetica,sans-Serif" font-size="10.00" fill="white">nltk.translate</text>
</g>
<!-- nltk_translate&#45;&gt;nltk -->
<g id="edge73" class="edge">
<title>nltk_translate&#45;&gt;nltk</title><style>.edge>path:hover{stroke-width:8}</style>
<path fill="none" stroke="black" d="M1433.74,-184.16C1430.04,-182.94 1426.32,-181.86 1422.67,-181 1299.82,-152.07 908.12,-134.38 785.05,-129.43"/>
<polygon fill="blue" stroke="black" points="785.11,-125.93 774.98,-129.03 784.84,-132.93 785.11,-125.93"/>
</g>
<!-- nltk_tree -->
<g id="node36" class="node">
<title>nltk_tree</title><style>.edge>path:hover{stroke-width:8}</style>
<polygon fill="blue" stroke="black" points="1589.67,-220.21 1531.67,-220.21 1531.67,-184.21 1589.67,-184.21 1589.67,-220.21"/>
<text text-anchor="middle" x="1560.67" y="-199.71" font-family="Helvetica,sans-Serif" font-size="10.00" fill="white">nltk.tree</text>
</g>
<!-- nltk_tree&#45;&gt;nltk -->
<g id="edge74" class="edge">
<title>nltk_tree&#45;&gt;nltk</title><style>.edge>path:hover{stroke-width:8}</style>
<path fill="none" stroke="black" d="M1531.3,-184.08C1528.45,-182.88 1525.55,-181.82 1522.67,-181 1381.59,-140.65 920.38,-130.6 785.22,-128.5"/>
<polygon fill="blue" stroke="black" points="785.02,-124.99 774.97,-128.34 784.91,-131.99 785.02,-124.99"/>
</g>
<!-- nltk_util&#45;&gt;book_py -->
<g id="edge75" class="edge">
<title>nltk_util&#45;&gt;book_py</title><style>.edge>path:hover{stroke-width:8}</style>
<path fill="none" stroke="black" d="M307.58,-494.26C273.34,-485.69 214.86,-466.15 181.67,-427.43"/>
<path fill="none" stroke="black" d="M181.67,-425.43C125.55,-359.94 24.06,-436.21 1.67,-352.93"/>
<path fill="none" stroke="black" d="M1.67,-350.93C-7.77,-315.79 26.9,-312.49 39.67,-278.43"/>
<path fill="none" stroke="black" d="M39.67,-276.43C58.78,-225.47 78.05,-218.08 177.67,-181 252.22,-153.26 487.39,-194.08 531.67,-128"/>
<path fill="none" stroke="black" d="M531.67,-126C544.43,-106.2 544.02,-93.06 531.67,-73"/>
<path fill="none" stroke="black" d="M531.67,-72C526.96,-64.34 525.84,-54.8 526.27,-45.94"/>
<polygon fill="blue" stroke="black" points="529.75,-46.31 527.35,-35.99 522.79,-45.56 529.75,-46.31"/>
</g>
<!-- nltk_util&#45;&gt;nltk -->
<g id="edge76" class="edge">
<title>nltk_util&#45;&gt;nltk</title><style>.edge>path:hover{stroke-width:8}</style>
<path fill="none" stroke="black" d="M1.67,-350.93C-0.23,-343.85 90.84,-263.86 96.67,-259.43 135.71,-229.72 149.66,-228.55 191.67,-203.21"/>
<path fill="none" stroke="black" d="M191.67,-201.21C236.14,-174.39 592.63,-141.43 710.2,-131.19"/>
<polygon fill="blue" stroke="black" points="710.84,-134.65 720.5,-130.3 710.23,-127.67 710.84,-134.65"/>
</g>
<!-- nltk_util&#45;&gt;nltk_collocations -->
<g id="edge77" class="edge">
<title>nltk_util&#45;&gt;nltk_collocations</title><style>.edge>path:hover{stroke-width:8}</style>
<path fill="none" stroke="black" d="M181.67,-425.43C136.58,-370.96 271.62,-409.76 331.67,-372.43 342.22,-365.87 343.32,-362.11 351.67,-352.93"/>
<path fill="none" stroke="black" d="M351.67,-350.93C366.89,-334.2 385,-316.42 399.5,-302.65"/>
<polygon fill="blue" stroke="black" points="402.27,-304.85 407.15,-295.45 397.47,-299.76 402.27,-304.85"/>
</g>
<!-- nltk_util&#45;&gt;nltk_grammar -->
<g id="edge78" class="edge">
<title>nltk_util&#45;&gt;nltk_grammar</title><style>.edge>path:hover{stroke-width:8}</style>
<path fill="none" stroke="black" d="M361.75,-484.02C364.7,-482.66 367.71,-481.43 370.67,-480.43 477.02,-444.41 543.4,-511.63 617.67,-427.43"/>
<path fill="none" stroke="black" d="M617.67,-425.43C640.52,-399.52 639.17,-386.85 645.67,-352.93"/>
<path fill="none" stroke="black" d="M645.67,-350.93C648.76,-334.83 655.9,-318.02 662.65,-304.65"/>
<polygon fill="blue" stroke="black" points="665.87,-306.05 667.44,-295.57 659.68,-302.78 665.87,-306.05"/>
</g>
<!-- nltk_util&#45;&gt;nltk_lm_preprocessing -->
<g id="edge79" class="edge">
<title>nltk_util&#45;&gt;nltk_lm_preprocessing</title><style>.edge>path:hover{stroke-width:8}</style>
<path fill="none" stroke="black" d="M181.67,-425.43C168.5,-409.51 152.49,-392.96 139.01,-379.7"/>
<polygon fill="blue" stroke="black" points="141.43,-377.16 131.82,-372.7 136.54,-382.18 141.43,-377.16"/>
</g>
<!-- nltk_util&#45;&gt;nltk_text -->
<g id="edge80" class="edge">
<title>nltk_util&#45;&gt;nltk_text</title><style>.edge>path:hover{stroke-width:8}</style>
<path fill="none" stroke="black" d="M181.67,-425.43C160.79,-400.21 165.81,-298.51 191.67,-278.43"/>
</g>
<!-- nltk_wsd&#45;&gt;nltk -->
<g id="edge81" class="edge">
<title>nltk_wsd&#45;&gt;nltk</title><style>.edge>path:hover{stroke-width:8}</style>
<path fill="none" stroke="black" d="M143.65,-259.28C153.3,-242.51 170.2,-217.47 191.67,-203.21"/>
</g>
</g>
</svg>
